<svg viewBox="0 0 12 12" fill="none" xmlns="http://www.w3.org/2000/svg">
<path d="M2 2.5C2 2.22386 2.22386 2 2.5 2H9.5C9.77614 2 10 2.22386 10 2.5C10 2.77614 9.77614 3 9.5 3H2.5C2.22386 3 2 2.77614 2 2.5Z" fill="evenodd"/>
<path d="M3 0.5C3 0.223858 3.22386 0 3.5 0H8.5C8.77614 0 9 0.223858 9 0.5C9 0.776142 8.77614 1 8.5 1H3.5C3.22386 1 3 0.776142 3 0.5Z" fill="evenodd"/>
<path fill-rule="evenodd" clip-rule="evenodd" d="M0.732233 4.73223C0 5.46447 0 5.64298 0 8C0 10.357 0 10.5355 0.732233 11.2678C1.46447 12 2.64298 12 5 12H7C9.35702 12 10.5355 12 11.2678 11.2678C12 10.5355 12 10.357 12 8C12 5.64298 12 5.46447 11.2678 4.73223C10.5355 4 9.35702 4 7 4H5C2.64298 4 1.46447 4 0.732233 4.73223ZM4 7.5C4 7.22386 4.22386 7 4.5 7C4.77614 7 5 7.22386 5 7.5V8H7V7.5C7 7.22386 7.22386 7 7.5 7C7.77614 7 8 7.22386 8 7.5V8C8 8.55228 7.55228 9 7 9H5C4.44772 9 4 8.55228 4 8V7.5Z" fill="evenodd"/>
</svg>
