<svg viewBox="0 0 12 8" fill="none" xmlns="http://www.w3.org/2000/svg">
<path d="M11.25 3.24976H2.66505L4.7607 1.30121C5.06405 1.01916 5.08131 0.5446 4.79926 0.241254C4.5172 -0.0620923 4.04264 -0.0793538 3.7393 0.202699L0.304731 3.39618C0.119876 3.53278 0 3.75227 0 3.99976C0 4.24725 0.119876 4.46674 0.304731 4.60334L3.7393 7.79682C4.04265 8.07887 4.51721 8.06161 4.79926 7.75826C5.08131 7.45492 5.06405 6.98036 4.7607 6.6983L2.66506 4.74976H11.25C11.6642 4.74976 12 4.41397 12 3.99976C12 3.58554 11.6642 3.24976 11.25 3.24976Z" fill="evenodd"/>
</svg>
