<svg viewBox="0 0 8 12" fill="none" xmlns="http://www.w3.org/2000/svg">
<path d="M4.75 11.25L4.75 2.66505L6.69854 4.7607C6.9806 5.06405 7.45516 5.08131 7.7585 4.79926C8.06185 4.5172 8.07911 4.04264 7.79706 3.7393L4.60358 0.304731C4.46698 0.119876 4.24749 0 4 0C3.75251 0 3.53301 0.119876 3.39642 0.304731L0.202939 3.7393C-0.0791149 4.04265 -0.0618534 4.51721 0.241494 4.79926C0.54484 5.08131 1.0194 5.06405 1.30145 4.7607L3.25 2.66506L3.25 11.25C3.25 11.6642 3.58578 12 4 12C4.41421 12 4.75 11.6642 4.75 11.25Z" fill="evenodd"/>
</svg>
