<svg viewBox="0 0 8 12" fill="none" xmlns="http://www.w3.org/2000/svg">
<path d="M3.25 0.75L3.25 9.33495L1.30146 7.2393C1.0194 6.93595 0.544845 6.91869 0.241498 7.20074C-0.0618482 7.4828 -0.0791096 7.95736 0.202944 8.2607L3.39642 11.6953C3.53302 11.8801 3.75251 12 4 12C4.24749 12 4.46699 11.8801 4.60358 11.6953L7.79706 8.2607C8.07911 7.95735 8.06185 7.48279 7.75851 7.20074C7.45516 6.91869 6.9806 6.93595 6.69855 7.2393L4.75 9.33494L4.75 0.75C4.75 0.335787 4.41422 0 4 0C3.58579 0 3.25 0.335787 3.25 0.75Z" fill="evenodd"/>
</svg>
