<svg viewBox="0 0 12 8" fill="none" xmlns="http://www.w3.org/2000/svg">
<path d="M0.75 3.24976H9.33495L7.2393 1.30121C6.93595 1.01916 6.91869 0.5446 7.20074 0.241254C7.4828 -0.0620923 7.95736 -0.0793538 8.2607 0.202699L11.6953 3.39618C11.8801 3.53278 12 3.75227 12 3.99976C12 4.24725 11.8801 4.46674 11.6953 4.60334L8.2607 7.79682C7.95735 8.07887 7.48279 8.06161 7.20074 7.75826C6.91869 7.45492 6.93595 6.98036 7.2393 6.6983L9.33494 4.74976H0.75C0.335787 4.74976 0 4.41397 0 3.99976C0 3.58554 0.335787 3.24976 0.75 3.24976Z" fill="evenodd"/>
</svg>
