<svg viewBox="0 0 12 12" fill="none" xmlns="http://www.w3.org/2000/svg">
<path fill-rule="evenodd" clip-rule="evenodd" d="M11.5607 3.43934C11.842 3.72064 12 4.10218 12 4.5V9.5C11.9992 10.1628 11.7356 10.7982 11.2669 11.2669C10.7982 11.7356 10.1628 11.9992 9.5 12H2.5C1.8372 11.9992 1.20178 11.7356 0.73311 11.2669C0.264441 10.7982 0.000793929 10.1628 0 9.5V4.5C0 4.10218 0.158035 3.72064 0.43934 3.43934C0.720644 3.15804 1.10218 3 1.5 3H3C3 2.20435 3.31607 1.44129 3.87868 0.87868C4.44129 0.31607 5.20435 0 6 0C6.79565 0 7.55871 0.31607 8.12132 0.87868C8.68393 1.44129 9 2.20435 9 3H10.5C10.8978 3 11.2794 3.15804 11.5607 3.43934ZM4.58579 1.58579C4.21071 1.96086 4 2.46957 4 3H8C8 2.46957 7.78929 1.96086 7.41421 1.58579C7.03914 1.21071 6.53043 1 6 1C5.46957 1 4.96086 1.21071 4.58579 1.58579ZM5.09865 8.69195C4.98306 8.64038 4.87913 8.56591 4.79315 8.47304L4.13465 7.76804C4.04407 7.67103 3.99575 7.54203 4.00029 7.40939C4.00484 7.27675 4.06189 7.15136 4.1589 7.06079C4.2559 6.97022 4.38491 6.92189 4.51754 6.92644C4.65018 6.93098 4.77557 6.98803 4.86615 7.08504L5.48315 7.74704L7.57664 5.65004C7.67086 5.55602 7.79857 5.50328 7.93168 5.50342C8.06478 5.50356 8.19238 5.55657 8.2864 5.65079C8.38041 5.74501 8.43315 5.87271 8.43301 6.00582C8.43287 6.13892 8.37986 6.26652 8.28565 6.36054L6.14964 8.49654C6.06224 8.58453 5.95822 8.65428 5.84363 8.70175C5.72905 8.74922 5.60617 8.77345 5.48215 8.77304H5.46564C5.33909 8.7711 5.21424 8.74351 5.09865 8.69195Z" fill="evenodd"/>
</svg>
