<svg viewBox="0 0 12 13" fill="none" xmlns="http://www.w3.org/2000/svg">
<path d="M0.955769 8.40193C0.700961 8.63398 0.5 8.81699 0.5 9C0.5 10 1.49999 10 1.49999 10H10.5C10.5 10 11.5 10 11.5 8.99979C11.5 8.81688 11.2991 8.63394 11.0443 8.40196C10.603 8.00009 9.99999 7.45104 9.99999 6.5V4C9.99999 2 8.17399 0 6 0C3.82601 0 1.99999 2 1.99999 4V6.5C2 7.45096 1.39711 8 0.955769 8.40193Z" fill="evenodd"/>
<path d="M4 10.5046L4.00001 10.5V10.5092L4 10.5046Z" fill="evenodd"/>
<path d="M6 12.5046C5.068 12.5046 4.2849 11.8671 4.06295 11.0044H7.93705C7.7151 11.8671 6.932 12.5046 6 12.5046Z" fill="evenodd"/>
</svg>
