<svg viewBox="0 0 10 12" fill="none" xmlns="http://www.w3.org/2000/svg">
<path d="M9.5 8.5C9.49912 7.83413 9.30832 7.18233 8.94999 6.6211C8.59166 6.05987 8.08067 5.6125 7.477 5.3315C7.80482 4.80193 7.98508 4.19432 7.9991 3.57165C8.01313 2.94897 7.8604 2.33387 7.55676 1.79007C7.25311 1.24627 6.80958 0.793549 6.27213 0.478809C5.73467 0.164069 5.12283 -0.00123993 4.5 7.00232e-06H1C0.734783 7.00232e-06 0.480429 0.105364 0.292893 0.2929C0.105357 0.480436 0 0.73479 0 1.00001V11C0 11.2652 0.105357 11.5196 0.292893 11.7071C0.480429 11.8946 0.734783 12 1 12H6C6.92793 11.9989 7.81755 11.6299 8.4737 10.9737C9.12985 10.3176 9.49894 9.42793 9.5 8.5ZM2 2.00001H4.5C4.89782 2.00001 5.27935 2.15804 5.56066 2.43935C5.84196 2.72065 6 3.10218 6 3.50001C6 3.89783 5.84196 4.27936 5.56066 4.56067C5.27935 4.84197 4.89782 5 4.5 5H2V2.00001ZM6 10H2V7H6C6.39782 7 6.77935 7.15804 7.06066 7.43934C7.34196 7.72065 7.5 8.10218 7.5 8.5C7.5 8.89783 7.34196 9.27936 7.06066 9.56066C6.77935 9.84197 6.39782 10 6 10Z" fill="evenodd"/>
</svg>
