<svg viewBox="0 0 12 12" fill="none" xmlns="http://www.w3.org/2000/svg">
<path d="M5 3V0H7V3C7 3.26522 6.89464 3.51957 6.70711 3.70711C6.51957 3.89464 6.26522 4 6 4C5.73478 4 5.48043 3.89464 5.29289 3.70711C5.10536 3.51957 5 3.26522 5 3ZM8 2.5H12C11.9992 1.8372 11.7356 1.20178 11.2669 0.73311C10.7982 0.264441 10.1628 0.000793929 9.5 0L8 0V2.5ZM4 0H2.5C1.8372 0.000793929 1.20178 0.264441 0.73311 0.73311C0.264441 1.20178 0.000793929 1.8372 0 2.5H4V0ZM12 3.5V9.5C11.9992 10.1628 11.7356 10.7982 11.2669 11.2669C10.7982 11.7356 10.1628 11.9992 9.5 12H2.5C1.8372 11.9992 1.20178 11.7356 0.73311 11.2669C0.264441 10.7982 0.000793929 10.1628 0 9.5L0 3.5H4.071C4.18014 3.92879 4.42903 4.309 4.77836 4.58055C5.12769 4.85211 5.55754 4.99953 6 4.99953C6.44246 4.99953 6.87231 4.85211 7.22164 4.58055C7.57097 4.309 7.81986 3.92879 7.929 3.5H12ZM10 9.5C10 9.36739 9.94732 9.24021 9.85355 9.14645C9.75979 9.05268 9.63261 9 9.5 9H8C7.86739 9 7.74021 9.05268 7.64645 9.14645C7.55268 9.24021 7.5 9.36739 7.5 9.5C7.5 9.63261 7.55268 9.75979 7.64645 9.85355C7.74021 9.94732 7.86739 10 8 10H9.5C9.63261 10 9.75979 9.94732 9.85355 9.85355C9.94732 9.75979 10 9.63261 10 9.5Z" fill="evenodd"/>
</svg>
