<svg viewBox="0 0 12 11" fill="none" xmlns="http://www.w3.org/2000/svg">
<path fill-rule="evenodd" clip-rule="evenodd" d="M10 1H2C1.44772 1 1 1.44772 1 2V9C1 9.55228 1.44772 10 2 10H10C10.5523 10 11 9.55228 11 9V2C11 1.44772 10.5523 1 10 1ZM2 0C0.895431 0 0 0.895431 0 2V9C0 10.1046 0.895431 11 2 11H10C11.1046 11 12 10.1046 12 9V2C12 0.895431 11.1046 0 10 0H2Z" fill="evenodd"/>
<path d="M1 1H11V3H1V1Z" fill="evenodd"/>
<path d="M2.5 4C2.22386 4 2 4.22386 2 4.5V5.5C2 5.77614 2.22386 6 2.5 6H3.5C3.77614 6 4 5.77614 4 5.5V4.5C4 4.22386 3.77614 4 3.5 4H2.5Z" fill="evenodd"/>
<path d="M2.5 7C2.22386 7 2 7.22386 2 7.5V8.5C2 8.77614 2.22386 9 2.5 9H3.5C3.77614 9 4 8.77614 4 8.5V7.5C4 7.22386 3.77614 7 3.5 7H2.5Z" fill="evenodd"/>
<path d="M5 4.5C5 4.22386 5.22386 4 5.5 4H6.5C6.77614 4 7 4.22386 7 4.5V5.5C7 5.77614 6.77614 6 6.5 6H5.5C5.22386 6 5 5.77614 5 5.5V4.5Z" fill="evenodd"/>
<path d="M5.5 7C5.22386 7 5 7.22386 5 7.5V8.5C5 8.77614 5.22386 9 5.5 9H6.5C6.77614 9 7 8.77614 7 8.5V7.5C7 7.22386 6.77614 7 6.5 7H5.5Z" fill="evenodd"/>
<path d="M8 4.5C8 4.22386 8.22386 4 8.5 4H9.5C9.77614 4 10 4.22386 10 4.5V5.5C10 5.77614 9.77614 6 9.5 6H8.5C8.22386 6 8 5.77614 8 5.5V4.5Z" fill="evenodd"/>
<path d="M8.5 7C8.22386 7 8 7.22386 8 7.5V8.5C8 8.77614 8.22386 9 8.5 9H9.5C9.77614 9 10 8.77614 10 8.5V7.5C10 7.22386 9.77614 7 9.5 7H8.5Z" fill="evenodd"/>
</svg>
