<svg viewBox="0 0 12 13" fill="none" xmlns="http://www.w3.org/2000/svg">
<path d="M11.6422 2.55196C11.498 2.37893 11.3175 2.23978 11.1135 2.14437C10.9095 2.04896 10.687 1.99964 10.4617 1.99991H2.17437L2.15283 1.35782C2.10877 0.983851 1.92903 0.639048 1.64768 0.388779C1.36633 0.138511 1.00292 0.000175196 0.62637 0H0.512578C0.376634 0 0.246258 0.0540036 0.150131 0.150131C0.0540036 0.246258 0 0.376634 0 0.512578C0 0.648522 0.0540036 0.778898 0.150131 0.875025C0.246258 0.971152 0.376634 1 0.512578 1H0.62637C0.751918 1.00002 0.873093 1.07127 0.966913 1.15469C1.06073 1.23812 1.12067 1.35308 1.13536 1.47776L1.84068 7.28625C1.91391 7.90995 2.21357 8.48507 2.6828 8.90243C3.15203 9.31979 3.5 9.52516 4.5 9.52516L9.48742 9.52517C9.62337 9.52517 9.75374 9.47116 9.84987 9.37504C9.946 9.27891 10 9.17369 10 9.03775C10 8.9018 9.946 8.77143 9.84987 8.6753C9.75374 8.57917 9.62337 8.52517 9.48742 8.52517H4.5C4.18274 8.52428 3.70796 8.49053 3.50089 8.24174C3.24211 8.05821 3.04643 7.79911 2.94068 7.5H9.05061C9.6515 7.50004 10.2333 7.28894 10.6944 6.90358C11.1554 6.51823 11.4664 6.09136 11.573 5.5L11.9754 3.81085C12.0155 3.58942 12.0065 3.36187 11.9489 3.14431C11.8914 2.92676 11.7866 2.72453 11.6422 2.55196Z" fill="evenodd"/>
<path d="M3.70796 12.0503C4.27414 12.0503 4.73312 11.5913 4.73312 11.0252C4.73312 10.459 4.27414 10 3.70796 10C3.14178 10 2.6828 10.459 2.6828 11.0252C2.6828 11.5913 3.14178 12.0503 3.70796 12.0503Z" fill="evenodd"/>
<path d="M8.73224 12.0503C9.29842 12.0503 9.7574 11.5913 9.7574 11.0252C9.7574 10.459 9.29842 10 8.73224 10C8.16606 10 7.70708 10.459 7.70708 11.0252C7.70708 11.5913 8.16606 12.0503 8.73224 12.0503Z" fill="evenodd"/>
</svg>
