<svg viewBox="0 0 12 12" fill="none" xmlns="http://www.w3.org/2000/svg">
<path d="M11.375 2.5H4.625C4.45924 2.5 4.30027 2.43415 4.18306 2.31694C4.06585 2.19973 4 2.04076 4 1.875C4 1.70924 4.06585 1.55027 4.18306 1.43306C4.30027 1.31585 4.45924 1.25 4.625 1.25H11.375C11.5408 1.25 11.6997 1.31585 11.8169 1.43306C11.9342 1.55027 12 1.70924 12 1.875C12 2.04076 11.9342 2.19973 11.8169 2.31694C11.6997 2.43415 11.5408 2.5 11.375 2.5Z" fill="evenodd"/>
<path d="M4.625 5.25H11.375C11.5408 5.25 11.6997 5.31585 11.8169 5.43306C11.9342 5.55027 12 5.70924 12 5.875C12 6.04076 11.9342 6.19973 11.8169 6.31694C11.6997 6.43415 11.5408 6.5 11.375 6.5H4.625C4.45924 6.5 4.30027 6.43415 4.18306 6.31694C4.06585 6.19973 4 6.04076 4 5.875C4 5.70924 4.06585 5.55027 4.18306 5.43306C4.30027 5.31585 4.45924 5.25 4.625 5.25Z" fill="evenodd"/>
<path d="M8.375 9.25H4.625C4.45924 9.25 4.30027 9.31585 4.18306 9.43306C4.06585 9.55027 4 9.70924 4 9.875C4 10.0408 4.06585 10.1997 4.18306 10.3169C4.30027 10.4342 4.45924 10.5 4.625 10.5H8.375C8.54076 10.5 8.69973 10.4342 8.81694 10.3169C8.93415 10.1997 9 10.0408 9 9.875C9 9.70924 8.93415 9.55027 8.81694 9.43306C8.69973 9.31585 8.54076 9.25 8.375 9.25Z" fill="evenodd"/>
<path d="M2.5 2C2.5 2.69036 1.94036 3.25 1.25 3.25C0.559644 3.25 0 2.69036 0 2C0 1.30964 0.559644 0.75 1.25 0.75C1.94036 0.75 2.5 1.30964 2.5 2Z" fill="evenodd"/>
<path d="M1.25 7.25C1.94036 7.25 2.5 6.69036 2.5 6C2.5 5.30964 1.94036 4.75 1.25 4.75C0.559644 4.75 0 5.30964 0 6C0 6.69036 0.559644 7.25 1.25 7.25Z" fill="evenodd"/>
<path d="M2.5 10C2.5 10.6904 1.94036 11.25 1.25 11.25C0.559644 11.25 0 10.6904 0 10C0 9.30964 0.559644 8.75 1.25 8.75C1.94036 8.75 2.5 9.30964 2.5 10Z" fill="evenodd"/>
</svg>
