<svg viewBox="0 0 8 12" fill="none" xmlns="http://www.w3.org/2000/svg">
<path d="M4.00001 8.00002C3.20888 8.00002 2.43552 7.76542 1.77772 7.32589C1.11993 6.88637 0.607235 6.26165 0.304484 5.53075C0.00173313 4.79984 -0.0774803 3.99557 0.0768608 3.21965C0.231202 2.44372 0.612166 1.73099 1.17158 1.17158C1.73099 0.612166 2.44372 0.231202 3.21965 0.0768608C3.99557 -0.0774803 4.79984 0.00173313 5.53075 0.304484C6.26165 0.607235 6.88637 1.11993 7.32589 1.77772C7.76542 2.43552 8.00002 3.20888 8.00002 4.00001C7.99883 5.06051 7.57701 6.07724 6.82713 6.82713C6.07724 7.57701 5.06051 7.99883 4.00001 8.00002ZM4.00001 9.00002C2.9167 8.99953 1.86323 8.64504 1 7.99052V10.75C1 10.9855 1.06651 11.2162 1.19187 11.4155C1.31723 11.6148 1.49635 11.7747 1.70859 11.8767C1.92083 11.9787 2.15756 12.0187 2.39152 11.992C2.62548 11.9653 2.84715 11.8731 3.03101 11.726L3.84401 11.076C3.88831 11.0406 3.94332 11.0214 4.00001 11.0214C4.0567 11.0214 4.11171 11.0406 4.15601 11.076L4.96901 11.726C5.15287 11.8731 5.37454 11.9653 5.6085 11.992C5.84246 12.0187 6.07919 11.9787 6.29143 11.8767C6.50367 11.7747 6.68279 11.6148 6.80815 11.4155C6.93351 11.2162 7.00002 10.9855 7.00001 10.75V7.99052C6.13676 8.64497 5.08331 8.99946 4.00001 9.00002Z" fill="evenodd"/>
</svg>
