<svg viewBox="0 0 10 10" fill="none" xmlns="http://www.w3.org/2000/svg">
<path d="M4 1C4 0.447715 4.44772 0 5 0C5.55228 0 6 0.447715 6 1V9C6 9.55229 5.55228 10 5 10C4.44772 10 4 9.55228 4 9V1Z" fill="evenodd"/>
<path d="M0 6.5C0 5.94772 0.447715 5.5 1 5.5C1.55228 5.5 2 5.94772 2 6.5V9C2 9.55229 1.55228 10 1 10C0.447715 10 0 9.55229 0 9V6.5Z" fill="evenodd"/>
<path d="M9 2.5C8.44771 2.5 8 2.94772 8 3.5V9C8 9.55229 8.44771 10 9 10C9.55229 10 10 9.55229 10 9V3.5C10 2.94772 9.55229 2.5 9 2.5Z" fill="evenodd"/>
</svg>
