<svg viewBox="0 0 14 11" fill="none" xmlns="http://www.w3.org/2000/svg">
<path d="M2.03033 5.46967C1.73744 5.17678 1.26256 5.17678 0.96967 5.46967C0.676777 5.76256 0.676777 6.23744 0.96967 6.53033L2.03033 5.46967ZM5 9.5L4.46967 10.0303C4.61607 10.1767 4.81647 10.2561 5.0234 10.2496C5.23034 10.2432 5.4254 10.1515 5.56238 9.99622L5 9.5ZM13.0624 1.49622C13.3364 1.18562 13.3068 0.711674 12.9962 0.437622C12.6856 0.163569 12.2117 0.193191 11.9376 0.503784L13.0624 1.49622ZM0.96967 6.53033L4.46967 10.0303L5.53033 8.96967L2.03033 5.46967L0.96967 6.53033ZM5.56238 9.99622L13.0624 1.49622L11.9376 0.503784L4.43762 9.00378L5.56238 9.99622Z" fill="evenodd"/>
</svg>
