<svg viewBox="0 0 12 12" fill="none" xmlns="http://www.w3.org/2000/svg">
<path d="M0.801843 9C0.900255 9.1708 1.03137 9.32053 1.18768 9.44062C1.344 9.56072 1.52245 9.64882 1.71284 9.6999C1.90323 9.75098 2.10183 9.76404 2.29726 9.73831C2.4927 9.71259 2.68115 9.6486 2.85184 9.55L3.07434 9.4215C3.49435 9.78084 3.97711 10.0595 4.49834 10.2435V10.5C4.49834 10.8978 4.65638 11.2794 4.93768 11.5607C5.21899 11.842 5.60052 12 5.99834 12C6.39617 12 6.7777 11.842 7.059 11.5607C7.34031 11.2794 7.49834 10.8978 7.49834 10.5V10.2435C8.01965 10.0592 8.50242 9.7802 8.92234 9.4205L9.14584 9.5495C9.49063 9.74841 9.9003 9.80221 10.2848 9.69907C10.6692 9.59592 10.9969 9.34428 11.1958 8.9995C11.3948 8.65472 11.4486 8.24504 11.3454 7.86059C11.2423 7.47614 10.9906 7.14841 10.6458 6.9495L10.4238 6.8215C10.5238 6.27772 10.5238 5.72028 10.4238 5.1765L10.6458 5.0485C10.8166 4.95001 10.9662 4.81886 11.0862 4.66253C11.2063 4.50621 11.2943 4.32777 11.3454 4.13741C11.3965 3.94705 11.4096 3.74849 11.3839 3.55308C11.3582 3.35766 11.2943 3.16922 11.1958 2.9985C11.0974 2.82778 10.9662 2.67813 10.8099 2.5581C10.6535 2.43807 10.4751 2.35 10.2848 2.29893C10.0944 2.24786 9.89584 2.23478 9.70042 2.26044C9.50501 2.28611 9.31656 2.35001 9.14584 2.4485L8.92334 2.577C8.50292 2.21808 8.01982 1.93992 7.49834 1.7565V1.5C7.49834 1.10218 7.34031 0.720644 7.059 0.43934C6.7777 0.158035 6.39617 0 5.99834 0C5.60052 0 5.21899 0.158035 4.93768 0.43934C4.65638 0.720644 4.49834 1.10218 4.49834 1.5V1.7565C3.97704 1.94078 3.49427 2.2198 3.07434 2.5795L2.85084 2.45C2.50606 2.25109 2.09638 2.19729 1.71193 2.30043C1.32748 2.40358 0.999755 2.65522 0.800843 3C0.601931 3.34478 0.548129 3.75446 0.651274 4.13891C0.754419 4.52336 1.00606 4.85109 1.35084 5.05L1.57284 5.178C1.4729 5.72178 1.4729 6.27922 1.57284 6.823L1.35084 6.951C1.00694 7.15048 0.756085 7.4781 0.653191 7.86212C0.550297 8.24615 0.603748 8.6553 0.801843 9ZM5.99834 4C6.39391 4 6.78058 4.1173 7.10948 4.33706C7.43838 4.55682 7.69473 4.86918 7.8461 5.23463C7.99748 5.60009 8.03708 6.00222 7.95991 6.39018C7.88274 6.77814 7.69226 7.13451 7.41256 7.41421C7.13285 7.69392 6.77649 7.8844 6.38852 7.96157C6.00056 8.03874 5.59843 7.99913 5.23298 7.84776C4.86752 7.69638 4.55517 7.44004 4.3354 7.11114C4.11564 6.78224 3.99834 6.39556 3.99834 6C3.99834 5.46957 4.20906 4.96086 4.58413 4.58579C4.9592 4.21071 5.46791 4 5.99834 4Z" fill="evenodd"/>
</svg>
