<svg viewBox="0 0 12 12" fill="none" xmlns="http://www.w3.org/2000/svg">
<path d="M9.60211 5.49664H7.22125C7.03091 5.49664 6.84837 5.42103 6.71379 5.28645C6.5792 5.15186 6.50359 4.96932 6.50359 4.77899V2.39813C6.50341 2.29922 6.53259 2.20247 6.58743 2.12016C6.64227 2.03784 6.72031 1.97364 6.81165 1.9357C6.903 1.89776 7.00355 1.88778 7.10057 1.90702C7.1976 1.92627 7.28673 1.97387 7.35668 2.0438L8.30273 2.99034L11.1473 0.146281C11.2411 0.052572 11.3682 -4.68283e-05 11.5008 3.12719e-08C11.6334 4.68969e-05 11.7605 0.0527556 11.8542 0.146531C11.9479 0.240306 12.0005 0.367467 12.0005 0.500038C12.0004 0.63261 11.9477 0.759733 11.854 0.853442L9.00989 3.69751L9.95594 4.64355C10.0258 4.71347 10.0734 4.80256 10.0927 4.89954C10.1119 4.99651 10.102 5.09702 10.0641 5.18835C10.0262 5.27968 9.96213 5.35771 9.87989 5.41259C9.79765 5.46747 9.70098 5.49672 9.60211 5.49664Z" fill="evenodd"/>
<path d="M2.40442 6.49707H4.78528C4.97561 6.49707 5.15815 6.57268 5.29274 6.70726C5.42732 6.84185 5.50293 7.02439 5.50293 7.21472V9.59558C5.50301 9.69439 5.4738 9.79101 5.41898 9.87322C5.36416 9.95543 5.28621 10.0195 5.19496 10.0575C5.10372 10.0954 5.00328 10.1054 4.90634 10.0863C4.80941 10.0671 4.72032 10.0197 4.65034 9.94991L3.7038 9.00336L0.859232 11.8474C0.813131 11.8952 0.757985 11.9332 0.697012 11.9594C0.636039 11.9856 0.570461 11.9994 0.504103 12C0.437745 12.0006 0.371937 11.9879 0.310518 11.9628C0.249099 11.9377 0.1933 11.9005 0.146376 11.8536C0.0994526 11.8067 0.0623438 11.7509 0.0372154 11.6895C0.012087 11.6281 -0.000557793 11.5623 1.88714e-05 11.4959C0.000595476 11.4295 0.014382 11.364 0.0405739 11.303C0.0667658 11.242 0.104839 11.1869 0.152571 11.1408L2.99663 8.2962L2.05059 7.35016C1.98069 7.28024 1.9331 7.19115 1.91384 7.09417C1.89458 6.9972 1.90452 6.89669 1.9424 6.80536C1.98028 6.71403 2.04439 6.636 2.12663 6.58112C2.20888 6.52624 2.30555 6.49699 2.40442 6.49707Z" fill="evenodd"/>
</svg>
