<svg viewBox="0 0 13 14" fill="none" xmlns="http://www.w3.org/2000/svg">
<path d="M10.8321 2.36988C10.197 1.84139 9.45934 1.45017 8.66559 1.22087C7.87183 0.99157 7.03918 0.929157 6.22011 1.03757C4.70487 1.23441 3.32134 2.00055 2.35044 3.1804C1.37954 4.36026 0.894057 5.86539 0.992563 7.39018C1.09107 8.91498 1.76618 10.3451 2.88082 11.3903C3.99546 12.4354 5.46606 13.0171 6.99404 13.0174H10.4937C11.1582 13.0166 11.7952 12.7523 12.265 12.2824C12.7349 11.8126 12.9992 11.1756 13 10.5111V6.65605V6.62447C12.9469 5.80515 12.7273 5.00527 12.3546 4.27373C11.9818 3.54219 11.4638 2.89437 10.8321 2.36988ZM4.98002 4.49617H6.98501C7.11795 4.49617 7.24545 4.54898 7.33945 4.64299C7.43345 4.73699 7.48626 4.86448 7.48626 4.99742C7.48626 5.13036 7.43345 5.25785 7.33945 5.35186C7.24545 5.44586 7.11795 5.49867 6.98501 5.49867H4.98002C4.84709 5.49867 4.71959 5.44586 4.62559 5.35186C4.53159 5.25785 4.47878 5.13036 4.47878 4.99742C4.47878 4.86448 4.53159 4.73699 4.62559 4.64299C4.71959 4.54898 4.84709 4.49617 4.98002 4.49617ZM8.99 9.50865H4.98002C4.84709 9.50865 4.71959 9.45584 4.62559 9.36184C4.53159 9.26783 4.47878 9.14034 4.47878 9.0074C4.47878 8.87446 4.53159 8.74697 4.62559 8.65297C4.71959 8.55896 4.84709 8.50615 4.98002 8.50615H8.99C9.12294 8.50615 9.25044 8.55896 9.34444 8.65297C9.43844 8.74697 9.49125 8.87446 9.49125 9.0074C9.49125 9.14034 9.43844 9.26783 9.34444 9.36184C9.25044 9.45584 9.12294 9.50865 8.99 9.50865ZM8.99 7.50366H4.98002C4.84709 7.50366 4.71959 7.45085 4.62559 7.35685C4.53159 7.26284 4.47878 7.13535 4.47878 7.00241C4.47878 6.86947 4.53159 6.74198 4.62559 6.64798C4.71959 6.55397 4.84709 6.50116 4.98002 6.50116H8.99C9.12294 6.50116 9.25044 6.55397 9.34444 6.64798C9.43844 6.74198 9.49125 6.86947 9.49125 7.00241C9.49125 7.13535 9.43844 7.26284 9.34444 7.35685C9.25044 7.45085 9.12294 7.50366 8.99 7.50366Z" fill="evenodd"/>
</svg>
