<svg viewBox="0 0 12 12" fill="none" xmlns="http://www.w3.org/2000/svg">
<path d="M2.50002 0.5H9.50001C10.1628 0.500794 10.7982 0.76444 11.2669 1.23311C11.7356 1.70178 11.9992 2.3372 12 2.99999V6.49999H3.05176e-05V2.99999C0.000824445 2.3372 0.264471 1.70178 0.733139 1.23311C1.20181 0.76444 1.83723 0.500794 2.50002 0.5Z" fill="evenodd"/>
<path d="M5.50001 9.49987H2.50001C1.92391 9.49914 1.36567 9.29983 0.919391 8.93551C0.473107 8.5712 0.166066 8.06417 0.0500179 7.49987H11.95C11.8339 8.06417 11.5269 8.5712 11.0806 8.93551C10.6343 9.29983 10.0761 9.49914 9.5 9.49987H6.5V10.4999H8.5C8.63261 10.4999 8.75978 10.5525 8.85355 10.6463C8.94732 10.7401 9 10.8673 9 10.9999C9 11.1325 8.94732 11.2597 8.85355 11.3534C8.75978 11.4472 8.63261 11.4999 8.5 11.4999H3.50001C3.3674 11.4999 3.24023 11.4472 3.14646 11.3534C3.05269 11.2597 3.00001 11.1325 3.00001 10.9999C3.00001 10.8673 3.05269 10.7401 3.14646 10.6463C3.24023 10.5525 3.3674 10.4999 3.50001 10.4999H5.50001V9.49987Z" fill="evenodd"/>
</svg>
