<svg viewBox="0 0 10 10" fill="none" xmlns="http://www.w3.org/2000/svg">
<path fill-rule="evenodd" clip-rule="evenodd" d="M9.53034 1.53033C9.82324 1.23744 9.82324 0.762564 9.53034 0.46967C9.23745 0.176777 8.76258 0.176776 8.46968 0.469669L5 3.93934L1.53033 0.469675C1.23744 0.176782 0.762568 0.176782 0.469674 0.469675C0.176781 0.762568 0.176781 1.23744 0.469674 1.53034L3.93934 5L0.469671 8.46967C0.176777 8.76256 0.176777 9.23744 0.46967 9.53033C0.762563 9.82322 1.23744 9.82322 1.53033 9.53033L5 6.06066L8.46967 9.53034C8.76257 9.82323 9.23744 9.82323 9.53033 9.53034C9.82323 9.23744 9.82323 8.76257 9.53033 8.46968L6.06066 5L9.53034 1.53033Z" fill="evenodd"/>
</svg>
