<svg viewBox="0 0 10 12" fill="none" xmlns="http://www.w3.org/2000/svg">
<path d="M6 3.5V0.23C6.46253 0.404668 6.88264 0.675656 7.2325 1.025L8.9745 2.768C9.32424 3.11744 9.59544 3.53745 9.77 4H6.5C6.36739 4 6.24021 3.94732 6.14645 3.85355C6.05268 3.75979 6 3.63261 6 3.5ZM10 5.2425V9.5C9.99921 10.1628 9.73556 10.7982 9.26689 11.2669C8.79822 11.7356 8.1628 11.9992 7.5 12H2.5C1.8372 11.9992 1.20178 11.7356 0.73311 11.2669C0.264441 10.7982 0.000793929 10.1628 0 9.5V2.5C0.000793929 1.8372 0.264441 1.20178 0.73311 0.73311C1.20178 0.264441 1.8372 0.000793929 2.5 0L4.7575 0C4.839 0 4.9195 0.0065 5 0.012V3.5C5 3.89782 5.15804 4.27936 5.43934 4.56066C5.72064 4.84196 6.10218 5 6.5 5H9.988C9.9935 5.0805 10 5.161 10 5.2425ZM6 9.5C6 9.36739 5.94732 9.24021 5.85355 9.14645C5.75979 9.05268 5.63261 9 5.5 9H3C2.86739 9 2.74021 9.05268 2.64645 9.14645C2.55268 9.24021 2.5 9.36739 2.5 9.5C2.5 9.63261 2.55268 9.75979 2.64645 9.85355C2.74021 9.94732 2.86739 10 3 10H5.5C5.63261 10 5.75979 9.94732 5.85355 9.85355C5.94732 9.75979 6 9.63261 6 9.5ZM7.5 7.5C7.5 7.36739 7.44732 7.24021 7.35355 7.14645C7.25979 7.05268 7.13261 7 7 7H3C2.86739 7 2.74021 7.05268 2.64645 7.14645C2.55268 7.24021 2.5 7.36739 2.5 7.5C2.5 7.63261 2.55268 7.75979 2.64645 7.85355C2.74021 7.94732 2.86739 8 3 8H7C7.13261 8 7.25979 7.94732 7.35355 7.85355C7.44732 7.75979 7.5 7.63261 7.5 7.5Z" fill="evenodd"/>
</svg>
