<svg viewBox="0 0 14 14" fill="none" xmlns="http://www.w3.org/2000/svg">
<path d="M2.57895 0H3.5614C3.72426 0 3.88044 0.0646929 3.99559 0.179847C4.11075 0.295001 4.17544 0.451183 4.17544 0.614035C4.17544 0.776888 4.11075 0.93307 3.99559 1.04822C3.88044 1.16338 3.72426 1.22807 3.5614 1.22807H2.57895C2.22067 1.22807 1.87707 1.37039 1.62373 1.62373C1.37039 1.87707 1.22807 2.22067 1.22807 2.57895V3.5614C1.22807 3.72426 1.16338 3.88044 1.04822 3.99559C0.93307 4.11075 0.776887 4.17544 0.614035 4.17544C0.451183 4.17544 0.295001 4.11075 0.179847 3.99559C0.0646928 3.88044 0 3.72426 0 3.5614V2.57895C0.000818947 1.89526 0.272776 1.23966 0.756218 0.756218C1.23966 0.272776 1.89526 0.000818947 2.57895 0Z" fill="evenodd"/>
<path d="M10.0044 0.179847C10.1196 0.0646928 10.2757 0 10.4386 0H11.4211C12.1047 0.000819123 12.7603 0.272776 13.2438 0.756218C13.7272 1.23966 13.9992 1.89511 14 2.5788V3.5614C14 3.72426 13.9353 3.88044 13.8202 3.99559C13.705 4.11075 13.5488 4.17544 13.386 4.17544C13.2231 4.17544 13.0669 4.11075 12.9518 3.99559C12.8366 3.88044 12.7719 3.72426 12.7719 3.5614V2.57895C12.7719 2.22067 12.6296 1.87707 12.3763 1.62373C12.1229 1.37039 11.7793 1.22807 11.4211 1.22807H10.4386C10.2757 1.22807 10.1196 1.16338 10.0044 1.04822C9.88925 0.93307 9.82456 0.776887 9.82456 0.614035C9.82456 0.451183 9.88925 0.295001 10.0044 0.179847Z" fill="evenodd"/>
<path d="M0.614035 9.82456C0.451183 9.82456 0.295001 9.88925 0.179847 10.0044C0.0646928 10.1196 0 10.2757 0 10.4386V11.4212C0.000819064 12.1049 0.272776 12.7603 0.756218 13.2438C1.23966 13.7272 1.89526 13.9992 2.57895 14H3.5614C3.72426 14 3.88044 13.9353 3.99559 13.8202C4.11075 13.705 4.17544 13.5488 4.17544 13.386C4.17544 13.2231 4.11075 13.0669 3.99559 12.9518C3.88044 12.8366 3.72426 12.7719 3.5614 12.7719H2.57895C2.22067 12.7719 1.87707 12.6296 1.62373 12.3763C1.37039 12.1229 1.22807 11.7793 1.22807 11.4211V10.4386C1.22807 10.2757 1.16338 10.1196 1.04822 10.0044C0.933069 9.88925 0.776887 9.82456 0.614035 9.82456Z" fill="evenodd"/>
<path d="M12.9518 10.0044C13.0669 9.88925 13.2231 9.82456 13.386 9.82456C13.5488 9.82456 13.705 9.88925 13.8202 10.0044C13.9353 10.1196 14 10.2757 14 10.4386V11.4211C13.9992 12.1047 13.7272 12.7603 13.2438 13.2438C12.7603 13.7272 12.1049 13.9992 11.4212 14H10.4386C10.2757 14 10.1196 13.9353 10.0044 13.8202C9.88925 13.705 9.82456 13.5488 9.82456 13.386C9.82456 13.2231 9.88925 13.0669 10.0044 12.9518C10.1196 12.8366 10.2757 12.7719 10.4386 12.7719H11.4211C11.7793 12.7719 12.1229 12.6296 12.3763 12.3763C12.6296 12.1229 12.7719 11.7793 12.7719 11.4211V10.4386C12.7719 10.2757 12.8366 10.1196 12.9518 10.0044Z" fill="evenodd"/>
<path fill-rule="evenodd" clip-rule="evenodd" d="M9.91667 3C10.469 3.00066 10.9985 3.22037 11.3891 3.61092C11.7796 4.00148 11.9993 4.531 12 5.08333V8.91667C11.9993 9.469 11.7796 9.99852 11.3891 10.3891C10.9985 10.7796 10.469 10.9993 9.91667 11H4.08333C3.531 10.9993 3.00148 10.7796 2.61092 10.3891C2.22037 9.99852 2.00066 9.469 2 8.91667V5.08333C2.00066 4.531 2.22037 4.00148 2.61092 3.61092C3.00148 3.22037 3.531 3.00066 4.08333 3H9.91667ZM4.25 4.5C3.83579 4.5 3.5 4.83579 3.5 5.25V8.25C3.5 8.66421 3.83579 9 4.25 9H5.75C6.16421 9 6.5 8.66421 6.5 8.25V5.25C6.5 4.83579 6.16421 4.5 5.75 4.5H4.25ZM8 4.5C7.72386 4.5 7.5 4.72386 7.5 5C7.5 5.27614 7.72386 5.5 8 5.5H10C10.2761 5.5 10.5 5.27614 10.5 5C10.5 4.72386 10.2761 4.5 10 4.5H8ZM7.5 7C7.5 6.72386 7.72386 6.5 8 6.5H10C10.2761 6.5 10.5 6.72386 10.5 7C10.5 7.27614 10.2761 7.5 10 7.5H8C7.72386 7.5 7.5 7.27614 7.5 7Z" fill="evenodd"/>
</svg>
