<svg viewBox="0 0 10 12" fill="none" xmlns="http://www.w3.org/2000/svg">
<path d="M6.5 0V2C6.5 2.39782 6.65804 2.77936 6.93934 3.06066C7.22064 3.34196 7.60218 3.5 8 3.5H10V7C9.99921 7.6628 9.73556 8.29822 9.26689 8.76689C8.79822 9.23556 8.1628 9.49921 7.5 9.5H5C4.3372 9.49921 3.70178 9.23556 3.23311 8.76689C2.76444 8.29822 2.50079 7.6628 2.5 7V2.5C2.50079 1.8372 2.76444 1.20178 3.23311 0.73311C3.70178 0.264441 4.3372 0.000793929 5 0H6.5Z" fill="evenodd"/>
<path d="M7.5 1.9999C7.5 2.13251 7.55268 2.25969 7.64645 2.35346C7.74021 2.44723 7.86739 2.4999 8 2.4999H9.983C9.9462 2.17539 9.80384 1.87194 9.5778 1.63622L8.4355 0.456404L8.43257 0.453441C8.18309 0.201957 7.85287 0.0464658 7.5 0.0144043V1.9999Z" fill="evenodd"/>
<path d="M2.5263 9.47381C3.18244 10.13 4.07207 10.499 5 10.5001H7.5C7.6 10.5001 7.696 10.4936 7.796 10.4851C7.60304 10.9342 7.28279 11.3171 6.87478 11.5863C6.46676 11.8555 5.98884 11.9994 5.5 12.0001H2.5C1.8372 11.9993 1.20178 11.7357 0.73311 11.267C0.264441 10.7983 0.000793929 10.1629 0 9.5001V4.5001C0.000733247 4.01127 0.144592 3.53334 0.413819 3.12533C0.683047 2.71731 1.06586 2.39706 1.515 2.2041C1.5065 2.3001 1.5 2.4001 1.5 2.5001V7.0001C1.50106 7.92803 1.87015 8.81766 2.5263 9.47381Z" fill="evenodd"/>
</svg>
