<svg viewBox="0 0 12 12" fill="none" xmlns="http://www.w3.org/2000/svg">
<path d="M7.234 5.27218H4.728C4.80266 4.82418 4.96133 4.49285 5.204 4.27818C5.456 4.06352 5.74533 3.95618 6.072 3.95618C6.492 3.95618 6.79066 4.07752 6.968 4.32018C7.14533 4.56285 7.234 4.88018 7.234 5.27218Z" fill="evenodd"/>
<path fill-rule="evenodd" clip-rule="evenodd" d="M2.5 0C1.11929 0 0 1.11929 0 2.5V9.5C0 10.8807 1.11929 12 2.5 12H9.5C10.8807 12 12 10.8807 12 9.5V2.5C12 1.11929 10.8807 0 9.5 0H2.5ZM4.882 9.43018C5.31133 9.58885 5.77333 9.66818 6.268 9.66818C6.688 9.66818 7.11266 9.59818 7.542 9.45818C7.98066 9.31818 8.37733 9.12685 8.732 8.88418L8.046 7.63818C7.542 7.94618 7.04267 8.10018 6.548 8.10018C6.08133 8.10018 5.68466 7.98352 5.358 7.75018C5.04066 7.50752 4.83533 7.13418 4.742 6.63018H8.9C8.91866 6.54618 8.93733 6.42018 8.956 6.25218C8.97466 6.08418 8.984 5.90685 8.984 5.72018C8.984 5.24418 8.92333 4.80552 8.802 4.40418C8.68067 3.99352 8.494 3.63885 8.242 3.34018C7.99933 3.04152 7.69133 2.80818 7.318 2.64018C6.954 2.47218 6.52466 2.38818 6.03 2.38818C5.61 2.38818 5.204 2.47218 4.812 2.64018C4.42 2.80818 4.07 3.05085 3.762 3.36818C3.46333 3.67618 3.22066 4.05885 3.034 4.51618C2.84733 4.96418 2.754 5.46818 2.754 6.02818C2.754 6.60685 2.84266 7.12018 3.02 7.56818C3.19733 8.01618 3.44466 8.39885 3.762 8.71618C4.07933 9.02418 4.45266 9.26218 4.882 9.43018Z" fill="evenodd"/>
</svg>
