<svg viewBox="0 0 13 12" fill="none" xmlns="http://www.w3.org/2000/svg">
<path d="M8.90442 1.5417e-07H11.2853C11.4756 1.5417e-07 11.6581 0.0756099 11.7927 0.210197C11.9273 0.344783 12.0029 0.527323 12.0029 0.717657V3.09851C12.003 3.19732 11.9738 3.29394 11.919 3.37615C11.8642 3.45836 11.7862 3.52248 11.695 3.5604C11.6037 3.59832 11.5033 3.60834 11.4063 3.5892C11.3094 3.57006 11.2203 3.52261 11.1503 3.45284L10.2038 2.5063L7.35923 5.35036C7.31313 5.39809 7.25798 5.43617 7.19701 5.46236C7.13604 5.48855 7.07046 5.50234 7.0041 5.50291C6.93775 5.50349 6.87194 5.49085 6.81052 5.46572C6.7491 5.44059 6.6933 5.40348 6.64638 5.35655C6.59945 5.30963 6.56234 5.25383 6.53722 5.19241C6.51209 5.131 6.49944 5.06519 6.50002 4.99883C6.5006 4.93247 6.51438 4.86689 6.54057 4.80592C6.56677 4.74495 6.60484 4.6898 6.65257 4.6437L9.49663 1.79914L8.55059 0.853092C8.48069 0.783169 8.4331 0.694084 8.41384 0.597107C8.39458 0.50013 8.40452 0.399621 8.4424 0.308294C8.48028 0.216968 8.54439 0.138929 8.62663 0.0840508C8.70888 0.0291731 8.80555 -7.74885e-05 8.90442 1.5417e-07Z" fill="evenodd"/>
<path d="M3.09852 11.9966H0.717657C0.527323 11.9966 0.344784 11.921 0.210197 11.7864C0.0756105 11.6519 8.02286e-07 11.4693 8.02286e-07 11.279V8.89813C-0.000176395 8.79922 0.0290026 8.70248 0.0838421 8.62016C0.138682 8.53784 0.216716 8.47364 0.308063 8.4357C0.39941 8.39776 0.499961 8.38778 0.596984 8.40702C0.694008 8.42627 0.783139 8.47387 0.853092 8.5438L1.79914 9.49034L4.6437 6.64628C4.73748 6.55257 4.86464 6.49995 4.99721 6.5C5.12978 6.50005 5.2569 6.55276 5.35061 6.64653C5.44432 6.74031 5.49694 6.86747 5.49689 7.00004C5.49685 7.13261 5.44414 7.25973 5.35036 7.35344L2.5063 10.1975L3.45234 11.1436C3.52225 11.2135 3.56984 11.3026 3.5891 11.3995C3.60835 11.4965 3.59842 11.597 3.56054 11.6883C3.52266 11.7797 3.45854 11.8577 3.3763 11.9126C3.29406 11.9675 3.19739 11.9967 3.09852 11.9966Z" fill="evenodd"/>
</svg>
