<svg viewBox="0 0 12 10" fill="none" xmlns="http://www.w3.org/2000/svg">
<path d="M7.99926 5.0001C7.99926 6.06389 7.10416 6.92627 6 6.92627C4.89584 6.92627 4.00074 6.06389 4.00074 5.0001C4.00074 3.93631 4.89584 3.07394 6 3.07394C7.10416 3.07394 7.99926 3.93631 7.99926 5.0001Z" fill="evenodd"/>
<path fill-rule="evenodd" clip-rule="evenodd" d="M6 0.5C9.09485 0.5 10.8582 2.54077 11.6334 3.75714C11.8731 4.13058 12 4.56095 12 5C12 5.43905 11.8731 5.86942 11.6334 6.24286C10.8582 7.45923 9.09485 9.5 6 9.5C2.90515 9.5 1.1418 7.45923 0.366587 6.24286C0.12694 5.86942 0 5.43905 0 5C0 4.56095 0.12694 4.13058 0.366587 3.75714C1.1418 2.54077 2.90515 0.5 6 0.5ZM4.33391 7.40232C4.82707 7.71979 5.40688 7.88925 6 7.88925C6.79511 7.88848 7.55743 7.58383 8.11966 7.04216C8.68189 6.50049 8.99809 5.76604 8.99889 5C8.99889 4.42856 8.82301 3.86996 8.49348 3.39482C8.16396 2.91969 7.6956 2.54937 7.14762 2.33069C6.59965 2.11201 5.99667 2.05479 5.41495 2.16627C4.83322 2.27775 4.29887 2.55293 3.87947 2.957C3.46006 3.36106 3.17445 3.87588 3.05873 4.43634C2.94302 4.9968 3.00241 5.57773 3.22939 6.10567C3.45637 6.63361 3.84074 7.08485 4.33391 7.40232Z" fill="evenodd"/>
</svg>
