<svg viewBox="0 0 12 12" fill="none" xmlns="http://www.w3.org/2000/svg">
<path d="M11.6334 4.71863C11.1822 3.97929 10.6131 3.31887 9.94855 2.76359L11.348 1.36321C11.4391 1.26889 11.4895 1.14255 11.4883 1.01142C11.4872 0.880281 11.4346 0.754841 11.3419 0.662112C11.2493 0.569382 11.1239 0.516783 10.9929 0.515644C10.8618 0.514504 10.7356 0.564915 10.6413 0.656019L9.11936 2.18094C8.1759 1.62019 7.09731 1.32793 6.00001 1.3357C2.90565 1.3357 1.1423 3.45528 0.366588 4.71863C0.12694 5.10649 0 5.55348 0 6.00948C0 6.46548 0.12694 6.91247 0.366588 7.30033C0.817799 8.03967 1.38696 8.70009 2.05147 9.25537L0.651982 10.6557C0.604245 10.7019 0.566168 10.7571 0.539973 10.8181C0.513778 10.8791 0.49999 10.9447 0.499413 11.0111C0.498837 11.0776 0.511483 11.1434 0.536614 11.2049C0.561745 11.2663 0.598858 11.3222 0.645787 11.3691C0.692716 11.4161 0.748522 11.4532 0.809947 11.4784C0.871373 11.5035 0.937188 11.5162 1.00355 11.5156C1.06992 11.515 1.1355 11.5012 1.19648 11.475C1.25746 11.4488 1.31262 11.4107 1.35872 11.3629L2.88416 9.83652C3.82644 10.3972 4.90375 10.6899 6.00001 10.6833C9.09437 10.6833 10.8577 8.56368 11.6334 7.30033C11.8731 6.91247 12 6.46548 12 6.00948C12 5.55348 11.8731 5.10649 11.6334 4.71863ZM3.00112 6.00948C3.00017 5.45863 3.15102 4.91819 3.43708 4.44755C3.72315 3.97692 4.13335 3.59432 4.6226 3.34181C5.11185 3.0893 5.6612 2.97666 6.21028 3.01626C6.75935 3.05587 7.28687 3.24619 7.73487 3.56631L7.00914 4.29251C6.70447 4.10866 6.35579 4.01068 6.00001 4.00893C5.46977 4.00893 4.96125 4.2197 4.58632 4.59488C4.21138 4.97006 4.00075 5.4789 4.00075 6.00948C4.00249 6.36548 4.10041 6.71439 4.28414 7.01926L3.55841 7.74545C3.19603 7.23923 3.00115 6.63217 3.00112 6.00948ZM6.00001 9.0103C5.37771 9.01027 4.77105 8.81526 4.26515 8.45265L4.99088 7.72645C5.29555 7.9103 5.64423 8.00828 6.00001 8.01003C6.53025 8.01003 7.03877 7.79925 7.4137 7.42408C7.78864 7.0489 7.99927 6.54006 7.99927 6.00948C7.99753 5.65347 7.89961 5.30457 7.71588 4.9997L8.44161 4.27351C8.76152 4.72179 8.95172 5.24966 8.99131 5.79908C9.03089 6.3485 8.91832 6.89821 8.66597 7.38777C8.41362 7.87734 8.03127 8.2878 7.56093 8.57405C7.0906 8.8603 6.5505 9.01125 6.00001 9.0103Z" fill="evenodd"/>
</svg>
