<svg viewBox="0 0 13 14" fill="none" xmlns="http://www.w3.org/2000/svg">
<path d="M8.09097 13.0028C7.97289 13.0028 7.858 12.9645 7.76353 12.8936L5.58063 11.2564C5.51285 11.2056 5.45784 11.1397 5.41995 11.0639C5.38206 10.9881 5.36234 10.9046 5.36234 10.8199V7.84755L1.53352 3.54013C1.26159 3.23336 1.08404 2.8546 1.02221 2.44935C0.960383 2.0441 1.0169 1.62962 1.18497 1.25572C1.35305 0.881827 1.62552 0.564423 1.96965 0.341661C2.31378 0.118899 2.71492 0.000258903 3.12486 0H10.8742C11.2841 0.000480813 11.6851 0.119317 12.0291 0.342229C12.3731 0.565141 12.6454 0.882643 12.8133 1.25658C12.9812 1.63052 13.0375 2.04499 12.9755 2.45018C12.9136 2.85536 12.7359 3.23403 12.4639 3.54068L8.6367 7.84755V12.457C8.6367 12.6018 8.5792 12.7406 8.47686 12.8429C8.37451 12.9453 8.23571 13.0028 8.09097 13.0028Z" fill="evenodd"/>
</svg>
