<svg viewBox="0 0 15 13" fill="none" xmlns="http://www.w3.org/2000/svg">
<path d="M8.09097 13C7.97289 13 7.858 12.9617 7.76353 12.8909L5.58063 11.2537C5.51285 11.2028 5.45784 11.1369 5.41995 11.0611C5.38206 10.9854 5.36234 10.9018 5.36234 10.8171V7.84755L1.53352 3.54013C1.26159 3.23336 1.08404 2.8546 1.02221 2.44935C0.960383 2.0441 1.0169 1.62962 1.18497 1.25572C1.35305 0.881827 1.62552 0.564423 1.96965 0.341661C2.31378 0.118899 2.71492 0.000258903 3.12486 0H10.8742C11.2841 0.000480813 11.6851 0.119317 12.0291 0.342229C12.3731 0.565141 12.6454 0.882643 12.8133 1.25658C12.9403 1.53951 13.0035 1.84564 12.9999 2.15339C12.603 2.03889 12.1837 1.97754 11.75 1.97754C9.26472 1.97754 7.25 3.99226 7.25 6.47754C7.25 7.75475 7.78209 8.90768 8.6367 9.72675V12.4543C8.6367 12.599 8.5792 12.7378 8.47686 12.8402C8.37451 12.9425 8.23571 13 8.09097 13Z" fill="evenodd"/>
<path fill-rule="evenodd" clip-rule="evenodd" d="M8.62151 8.28516C8.68076 8.38835 8.7597 8.47881 8.8538 8.55136C8.94791 8.62392 9.05535 8.67715 9.16997 8.70801C9.28459 8.73887 9.40415 8.74676 9.52181 8.73122C9.63947 8.71568 9.75293 8.67702 9.85569 8.61745L9.98964 8.53981C10.2425 8.75692 10.5331 8.92528 10.8469 9.03644V9.19141C10.8469 9.43176 10.9421 9.66227 11.1114 9.83222C11.2808 10.0022 11.5105 10.0977 11.75 10.0977C11.9895 10.0977 12.2192 10.0022 12.3886 9.83222C12.5579 9.66227 12.6531 9.43176 12.6531 9.19141V9.03644C12.9669 8.9251 13.2575 8.75653 13.5104 8.53921L13.6449 8.61715C13.8525 8.73732 14.0991 8.76983 14.3306 8.70751C14.562 8.64519 14.7593 8.49316 14.8791 8.28485C14.9988 8.07655 15.0312 7.82904 14.9691 7.59676C14.907 7.36449 14.7555 7.16649 14.548 7.04631L14.4143 6.96898C14.4745 6.64045 14.4745 6.30366 14.4143 5.97512L14.548 5.89779C14.6507 5.83829 14.7408 5.75905 14.8131 5.6646C14.8854 5.57016 14.9384 5.46235 14.9691 5.34734C14.9999 5.23233 15.0078 5.11237 14.9923 4.99431C14.9769 4.87625 14.9384 4.76239 14.8791 4.65925C14.8198 4.55611 14.7408 4.4657 14.6467 4.39318C14.5526 4.32066 14.4452 4.26745 14.3306 4.23659C14.216 4.20574 14.0964 4.19784 13.9788 4.21334C13.8611 4.22885 13.7477 4.26745 13.6449 4.32696L13.511 4.40459C13.2578 4.18775 12.967 4.01969 12.6531 3.90887V3.75391C12.6531 3.51355 12.5579 3.28305 12.3886 3.11309C12.2192 2.94314 11.9895 2.84766 11.75 2.84766C11.5105 2.84766 11.2808 2.94314 11.1114 3.11309C10.9421 3.28305 10.8469 3.51355 10.8469 3.75391V3.90887C10.5331 4.02021 10.2425 4.18879 9.98964 4.4061L9.85509 4.32786C9.64752 4.20769 9.40088 4.17518 9.16942 4.2375C8.93797 4.29982 8.74066 4.45185 8.62091 4.66016C8.50116 4.86846 8.46877 5.11598 8.53087 5.34825C8.59296 5.58052 8.74446 5.77852 8.95203 5.8987L9.08568 5.97603C9.02551 6.30456 9.02551 6.64135 9.08568 6.96989L8.95203 7.04722C8.74499 7.16774 8.59397 7.36567 8.53202 7.59769C8.47007 7.8297 8.50225 8.0769 8.62151 8.28516ZM11.75 5.26432C11.9881 5.26432 12.2209 5.33519 12.4189 5.46796C12.617 5.60074 12.7713 5.78945 12.8624 6.01025C12.9536 6.23104 12.9774 6.474 12.9309 6.70839C12.8845 6.94278 12.7698 7.15809 12.6014 7.32708C12.433 7.49607 12.2185 7.61115 11.9849 7.65777C11.7513 7.7044 11.5092 7.68047 11.2892 7.58901C11.0692 7.49755 10.8812 7.34268 10.7488 7.14397C10.6165 6.94526 10.5459 6.71164 10.5459 6.47266C10.5459 6.15219 10.6728 5.84484 10.8986 5.61824C11.1244 5.39163 11.4307 5.26432 11.75 5.26432Z" fill="evenodd"/>
</svg>
