<svg viewBox="0 0 12 12" fill="none" xmlns="http://www.w3.org/2000/svg">
<path d="M2 1.5C2 0.674983 2.8248 0 3.83294 0C4.78285 0 5.59584 0.447567 6 1.09542C6.40416 0.44755 7.21713 0 8.16706 0C9.1752 0 10 0.674983 10 1.5C10 1.88498 9.81671 2.23498 9.52342 2.5H2.47658C2.18329 2.23498 2 1.88498 2 1.5Z" fill="evenodd"/>
<path d="M0 5C0 4.17157 0.671573 3.5 1.5 3.5H4V6.5H1.5C0.671573 6.5 0 5.82843 0 5Z" fill="evenodd"/>
<path d="M0.5 7.5H4V12H2.75C1.50736 12 0.5 10.9926 0.5 9.75V7.5Z" fill="evenodd"/>
<path d="M11.5 7.5H8V12H9.25C10.4926 12 11.5 10.9926 11.5 9.75V7.5Z" fill="evenodd"/>
<path d="M8 3.5H10.5C11.3284 3.5 12 4.17157 12 5C12 5.82843 11.3284 6.5 10.5 6.5H8V3.5Z" fill="evenodd"/>
<path d="M7 3.5H5V6.5H7V3.5Z" fill="evenodd"/>
<path d="M5 7.5H7V12H5V7.5Z" fill="evenodd"/>
</svg>
