<svg viewBox="0 0 12 12" fill="none" xmlns="http://www.w3.org/2000/svg">
<path d="M2 0H3.5C4.60457 0 5.5 0.89543 5.5 2V3.5C5.5 4.60457 4.60457 5.5 3.5 5.5H2C0.89543 5.5 0 4.60457 0 3.5V2C0 0.89543 0.89543 0 2 0Z" fill="evenodd"/>
<path d="M8.5 0H10C11.1046 0 12 0.89543 12 2V3.5C12 4.60457 11.1046 5.5 10 5.5H8.5C7.39543 5.5 6.5 4.60457 6.5 3.5V2C6.5 0.89543 7.39543 0 8.5 0Z" fill="evenodd"/>
<path d="M3.5 6.5H2C0.89543 6.5 0 7.39543 0 8.5V10C0 11.1046 0.89543 12 2 12H3.5C4.60457 12 5.5 11.1046 5.5 10V8.5C5.5 7.39543 4.60457 6.5 3.5 6.5Z" fill="evenodd"/>
<path d="M8.5 6.5H10C11.1046 6.5 12 7.39543 12 8.5V10C12 11.1046 11.1046 12 10 12H8.5C7.39543 12 6.5 11.1046 6.5 10V8.5C6.5 7.39543 7.39543 6.5 8.5 6.5Z" fill="evenodd"/>
</svg>
