<svg viewBox="0 0 10 12" fill="none" xmlns="http://www.w3.org/2000/svg">
<path d="M10 11.7898C10 11.8832 9.97661 11.9416 9.92982 11.965C9.89474 11.9883 9.84795 12 9.78947 12H6.14035C6.08187 12 6.02924 11.9883 5.98246 11.965C5.94737 11.9416 5.92982 11.8832 5.92982 11.7898V11.0715C5.92982 11.0131 5.94152 10.9664 5.96491 10.9314C5.9883 10.8847 6.04678 10.8613 6.14035 10.8613H7.24561V6.37664H2.75439V10.8613H3.85965C3.95322 10.8613 4.0117 10.8847 4.03509 10.9314C4.05848 10.9664 4.07018 11.0131 4.07018 11.0715V11.7898C4.07018 11.8832 4.04678 11.9416 4 11.965C3.96491 11.9883 3.91813 12 3.85965 12H0.210526C0.152047 12 0.0994153 11.9883 0.0526316 11.965C0.0175439 11.9416 0 11.8832 0 11.7898V11.0715C0 10.9781 0.0175439 10.9197 0.0526316 10.8964C0.0994153 10.873 0.152047 10.8613 0.210526 10.8613H1.31579V1.13869H0.210526C0.116959 1.13869 0.0584795 1.12117 0.0350877 1.08613C0.0116959 1.03942 0 0.986862 0 0.928468V0.21022C0 0.151825 0.0116959 0.10511 0.0350877 0.070073C0.0584795 0.0233576 0.116959 0 0.210526 0H3.85965C3.95322 0 4.0117 0.0233576 4.03509 0.070073C4.05848 0.10511 4.07018 0.151825 4.07018 0.21022V0.928468C4.07018 0.986862 4.05848 1.03942 4.03509 1.08613C4.0117 1.12117 3.95322 1.13869 3.85965 1.13869H2.75439V5.15036H7.24561V1.13869H6.14035C6.04678 1.13869 5.9883 1.12117 5.96491 1.08613C5.94152 1.03942 5.92982 0.986862 5.92982 0.928468V0.21022C5.92982 0.151825 5.94152 0.10511 5.96491 0.070073C5.9883 0.0233576 6.04678 0 6.14035 0H9.78947C9.84795 0 9.89474 0.0116792 9.92982 0.0350372C9.97661 0.0583946 10 0.116789 10 0.21022V0.928468C10 1.0219 9.97661 1.08029 9.92982 1.10365C9.89474 1.12701 9.84795 1.13869 9.78947 1.13869H8.68421V10.8613H9.78947C9.84795 10.8613 9.89474 10.873 9.92982 10.8964C9.97661 10.9197 10 10.9781 10 11.0715V11.7898Z" fill="evenodd"/>
</svg>
