<svg viewBox="0 0 14 8" fill="none" xmlns="http://www.w3.org/2000/svg">
<path d="M10 1C8.514 1 7.5285 2.1135 7 2.941C6.4715 2.1135 5.486 1 4 1C3.20435 1 2.44129 1.31607 1.87868 1.87868C1.31607 2.44129 1 3.20435 1 4C1 4.79565 1.31607 5.55871 1.87868 6.12132C2.44129 6.68393 3.20435 7 4 7C5.486 7 6.4715 5.8865 7 5.059C7.5285 5.8865 8.514 7 10 7C10.7956 7 11.5587 6.68393 12.1213 6.12132C12.6839 5.55871 13 4.79565 13 4C13 3.20435 12.6839 2.44129 12.1213 1.87868C11.5587 1.31607 10.7956 1 10 1ZM4 6C3.46957 6 2.96086 5.78929 2.58579 5.41421C2.21071 5.03914 2 4.53043 2 4C2 3.46957 2.21071 2.96086 2.58579 2.58579C2.96086 2.21071 3.46957 2 4 2C5.3465 2 6.191 3.4725 6.45 4C6.193 4.53 5.354 6 4 6ZM10 6C8.6535 6 7.809 4.5275 7.55 4C7.8075 3.471 8.6465 2 10 2C10.5304 2 11.0391 2.21071 11.4142 2.58579C11.7893 2.96086 12 3.46957 12 4C12 4.53043 11.7893 5.03914 11.4142 5.41421C11.0391 5.78929 10.5304 6 10 6Z" fill="evenodd"/>
<path fill-rule="evenodd" clip-rule="evenodd" d="M1.79029 1.79029C2.37634 1.20424 3.1712 0.875 4 0.875C5.4568 0.875 6.44275 1.8977 7 2.71416C7.55725 1.8977 8.5432 0.875 10 0.875C10.8288 0.875 11.6237 1.20424 12.2097 1.79029C12.7958 2.37634 13.125 3.1712 13.125 4C13.125 4.8288 12.7958 5.62366 12.2097 6.20971C11.6237 6.79576 10.8288 7.125 10 7.125C8.5432 7.125 7.55725 6.1023 7 5.28584C6.44275 6.1023 5.4568 7.125 4 7.125C3.1712 7.125 2.37634 6.79576 1.79029 6.20971C1.20424 5.62366 0.875 4.8288 0.875 4C0.875 3.1712 1.20424 2.37634 1.79029 1.79029ZM4 1.125C3.2375 1.125 2.50624 1.4279 1.96707 1.96707C1.4279 2.50624 1.125 3.2375 1.125 4C1.125 4.7625 1.4279 5.49377 1.96707 6.03293C2.50624 6.5721 3.2375 6.875 4 6.875C5.41846 6.875 6.37139 5.81102 6.89465 4.99172L7 4.82677L7.10535 4.99172C7.62861 5.81102 8.58154 6.875 10 6.875C10.7625 6.875 11.4938 6.5721 12.0329 6.03293C12.5721 5.49377 12.875 4.7625 12.875 4C12.875 3.2375 12.5721 2.50624 12.0329 1.96707C11.4938 1.4279 10.7625 1.125 10 1.125C8.58154 1.125 7.62861 2.18897 7.10535 3.00828L7 3.17323L6.89465 3.00828C6.37139 2.18897 5.41846 1.125 4 1.125ZM4 2.125C3.50272 2.125 3.02581 2.32254 2.67417 2.67417C2.32254 3.02581 2.125 3.50272 2.125 4C2.125 4.49728 2.32254 4.97419 2.67417 5.32583C3.02581 5.67746 3.50272 5.875 4 5.875C4.62878 5.875 5.14646 5.53392 5.54565 5.11276C5.91772 4.72022 6.17545 4.26963 6.31046 4.00033C6.17434 3.73183 5.9149 3.28113 5.54213 2.88822C5.14201 2.46649 4.62483 2.125 4 2.125ZM2.4974 2.4974C2.89591 2.09888 3.43641 1.875 4 1.875C4.72167 1.875 5.29999 2.26976 5.72349 2.71615C6.14767 3.16324 6.4301 3.67586 6.5622 3.94491L6.58909 3.99966L6.56247 4.05454C6.4313 4.32506 6.1507 4.83783 5.7271 5.28474C5.30404 5.73109 4.72522 6.125 4 6.125C3.43641 6.125 2.89591 5.90112 2.4974 5.5026C2.09888 5.10409 1.875 4.56359 1.875 4C1.875 3.43641 2.09888 2.89591 2.4974 2.4974ZM7.68958 3.99977C7.82572 4.26828 8.08514 4.71891 8.45787 5.11178C8.85799 5.53351 9.37517 5.875 10 5.875C10.4973 5.875 10.9742 5.67746 11.3258 5.32583C11.6775 4.97419 11.875 4.49728 11.875 4C11.875 3.50272 11.6775 3.02581 11.3258 2.67417C10.9742 2.32254 10.4973 2.125 10 2.125C9.37151 2.125 8.85396 2.46629 8.45474 2.8876C8.08272 3.28021 7.82488 3.73073 7.68958 3.99977ZM8.27326 2.71565C8.69629 2.26921 9.27499 1.875 10 1.875C10.5636 1.875 11.1041 2.09888 11.5026 2.4974C11.9011 2.89591 12.125 3.43641 12.125 4C12.125 4.56359 11.9011 5.10409 11.5026 5.5026C11.1041 5.90112 10.5636 6.125 10 6.125C9.27833 6.125 8.70001 5.73024 8.27651 5.28385C7.85233 4.83676 7.5699 4.32414 7.4378 4.05509L7.41086 4.00024L7.43761 3.94529C7.56898 3.67541 7.84969 3.16266 8.27326 2.71565Z" fill="evenodd"/>
</svg>
