<svg viewBox="0 0 12 12" fill="none" xmlns="http://www.w3.org/2000/svg">
<path fill-rule="evenodd" clip-rule="evenodd" d="M12 6C12 9.31371 9.31371 12 6 12C2.68629 12 0 9.31371 0 6C0 2.68629 2.68629 0 6 0C9.31371 0 12 2.68629 12 6ZM5 6.25H5.25V9H4.75C4.47386 9 4.25 9.22386 4.25 9.5C4.25 9.77614 4.47386 10 4.75 10H7.25C7.52614 10 7.75 9.77614 7.75 9.5C7.75 9.22386 7.52614 9 7.25 9H6.75V5.9625C6.75 5.569 6.41421 5.25 6 5.25H5C4.72386 5.25 4.5 5.47386 4.5 5.75C4.5 6.02614 4.72386 6.25 5 6.25ZM5.875 4.25C6.49632 4.25 7 3.74632 7 3.125C7 2.50368 6.49632 2 5.875 2C5.25368 2 4.75 2.50368 4.75 3.125C4.75 3.74632 5.25368 4.25 5.875 4.25Z" fill="evenodd"/>
</svg>
