<svg viewBox="0 0 10 12" fill="none" xmlns="http://www.w3.org/2000/svg">
<path fill-rule="evenodd" clip-rule="evenodd" d="M0.5 11.4999V0.50012C0.50007 0.409178 0.524943 0.319978 0.57194 0.242121C0.618937 0.164264 0.686279 0.100698 0.766716 0.0582676C0.847153 0.0158375 0.93764 -0.00384913 1.02843 0.0013237C1.11923 0.00649653 1.20689 0.0363341 1.28199 0.0876255L2.33498 1L3.38797 0.0876255C3.47116 0.0306568 3.56964 0.000171661 3.67047 0.000171661C3.7713 0.000171661 3.86977 0.0306568 3.95296 0.0876255L5 0.9995L6.05294 0.0876255C6.13619 0.0305479 6.23476 0 6.33569 0C6.43662 0 6.53519 0.0305479 6.61844 0.0876255L7.66842 0.9995L8.71841 0.0881252C8.79347 0.0369935 8.88104 0.00727143 8.97171 0.00214958C9.06239 -0.00297227 9.15275 0.0166995 9.23309 0.0590534C9.31343 0.101407 9.38071 0.164843 9.42772 0.24255C9.47473 0.320257 9.49968 0.409301 9.49991 0.50012V11.4999C9.49968 11.5907 9.47473 11.6798 9.42772 11.7575C9.38071 11.8352 9.31343 11.8986 9.23309 11.941C9.15275 11.9833 9.06239 12.003 8.97171 11.9979C8.88104 11.9928 8.79347 11.963 8.71841 11.9119L7.63256 11L6.61844 11.9124C6.53519 11.9695 6.43662 12 6.33569 12C6.23476 12 6.13619 11.9695 6.05294 11.9124L4.96709 10.9995L3.95296 11.9124C3.86977 11.9694 3.7713 11.9999 3.67047 11.9999C3.56964 11.9999 3.47116 11.9694 3.38797 11.9124L2.29912 10.9995L1.28199 11.9124C1.20689 11.9637 1.11923 11.9935 1.02843 11.9987C0.93764 12.0039 0.847153 11.9842 0.766716 11.9418C0.686279 11.8993 0.618937 11.8358 0.57194 11.7579C0.524943 11.68 0.50007 11.5908 0.5 11.4999ZM3.13261 8.5H6.13258C6.26518 8.5 6.39236 8.44732 6.48612 8.35356C6.57989 8.25979 6.63257 8.13261 6.63257 8.00001C6.63257 7.8674 6.57989 7.74022 6.48612 7.64646C6.39236 7.55269 6.26518 7.50001 6.13258 7.50001H3.13261C3 7.50001 2.87282 7.55269 2.77906 7.64646C2.68529 7.74022 2.63261 7.8674 2.63261 8.00001C2.63261 8.13261 2.68529 8.25979 2.77906 8.35356C2.87282 8.44732 3 8.5 3.13261 8.5ZM7.48611 6.35358C7.57988 6.25981 7.63256 6.13263 7.63256 6.00003C7.63256 5.86742 7.57988 5.74024 7.48611 5.64648C7.39235 5.55271 7.26517 5.50003 7.13257 5.50003H3.13261C3 5.50003 2.87282 5.55271 2.77906 5.64648C2.68529 5.74024 2.63261 5.86742 2.63261 6.00003C2.63261 6.13263 2.68529 6.25981 2.77906 6.35358C2.87282 6.44734 3 6.50002 3.13261 6.50002H7.13257C7.26517 6.50002 7.39235 6.44734 7.48611 6.35358ZM7.63255 4.00004C7.63255 4.13265 7.57987 4.25982 7.48611 4.35359C7.39234 4.44736 7.26516 4.50004 7.13256 4.50004H3.1326C2.99999 4.50004 2.87282 4.44736 2.77905 4.35359C2.68528 4.25982 2.6326 4.13265 2.6326 4.00004C2.6326 3.86744 2.68528 3.74026 2.77905 3.64649C2.87282 3.55273 2.99999 3.50005 3.1326 3.50005H7.13256C7.26516 3.50005 7.39234 3.55273 7.48611 3.64649C7.57987 3.74026 7.63255 3.86744 7.63255 4.00004Z" fill="evenodd"/>
</svg>
