<svg viewBox="0 0 10 12" fill="none" xmlns="http://www.w3.org/2000/svg">
<path d="M9 0H2.5C2.36739 0 2.24021 0.0526784 2.14645 0.146447C2.05268 0.240215 2 0.367392 2 0.5C2 0.632608 2.05268 0.759785 2.14645 0.853553C2.24021 0.947322 2.36739 1 2.5 1H5.177L3.8135 11H1C0.867392 11 0.740215 11.0527 0.646447 11.1464C0.552678 11.2402 0.5 11.3674 0.5 11.5C0.5 11.6326 0.552678 11.7598 0.646447 11.8536C0.740215 11.9473 0.867392 12 1 12H7.5C7.63261 12 7.75979 11.9473 7.85355 11.8536C7.94732 11.7598 8 11.6326 8 11.5C8 11.3674 7.94732 11.2402 7.85355 11.1464C7.75979 11.0527 7.63261 11 7.5 11H4.823L6.1865 1H9C9.13261 1 9.25979 0.947322 9.35355 0.853553C9.44732 0.759785 9.5 0.632608 9.5 0.5C9.5 0.367392 9.44732 0.240215 9.35355 0.146447C9.25979 0.0526784 9.13261 0 9 0V0Z" fill="evenodd"/>
</svg>
