<svg viewBox="0 0 13 10" fill="none" xmlns="http://www.w3.org/2000/svg">
<path d="M0 0.75C0 0.335786 0.335787 0 0.75 0C1.16421 0 1.5 0.335786 1.5 0.75V4.99976C1.5 4.75227 1.61988 4.53278 1.80473 4.39618L5.2393 1.2027C5.54264 0.920646 6.0172 0.937908 6.29926 1.24125C6.58131 1.5446 6.56405 2.01916 6.2607 2.30121L4.16505 4.24976H11.75C12.1642 4.24976 12.5 4.58554 12.5 4.99976C12.5 5.41397 12.1642 5.74976 11.75 5.74976H4.16506L6.2607 7.6983C6.56405 7.98036 6.58131 8.45492 6.29926 8.75826C6.01721 9.06161 5.54265 9.07887 5.2393 8.79682L1.80473 5.60334C1.61988 5.46674 1.5 5.24725 1.5 4.99976V9.25C1.5 9.66421 1.16421 10 0.75 10C0.335787 10 0 9.66421 0 9.25V0.75Z" fill="evenodd"/>
</svg>
