<svg viewBox="0 0 13 13" fill="none" xmlns="http://www.w3.org/2000/svg">
<path d="M11.9729 1.0298C11.6475 0.702125 11.2602 0.44229 10.8336 0.265353C10.407 0.0884157 9.94959 -0.00210508 9.48776 -0.000964239C9.02617 -0.00219042 8.56892 0.0880979 8.14245 0.26468C7.71597 0.441263 7.32873 0.700636 7.00311 1.0278L5.36919 2.65973C5.27535 2.7535 5.2226 2.88072 5.22255 3.01339C5.2225 3.14606 5.27516 3.27331 5.36894 3.36716C5.46272 3.461 5.58994 3.51375 5.72261 3.5138C5.85528 3.51385 5.98253 3.46119 6.07637 3.36741L7.7093 1.73599C7.94213 1.50175 8.21912 1.31603 8.52423 1.18957C8.82933 1.06312 9.15649 0.998445 9.48676 0.999295C9.98402 0.99946 10.4701 1.14705 10.8835 1.4234C11.2969 1.69976 11.619 2.09248 11.8093 2.55191C11.9995 3.01134 12.0493 3.51686 11.9523 4.00456C11.8552 4.49227 11.6158 4.94026 11.2642 5.29191L9.6328 6.92333C9.53895 7.01718 9.48623 7.14446 9.48623 7.27717C9.48623 7.40989 9.53895 7.53717 9.6328 7.63102C9.72664 7.72486 9.85392 7.77758 9.98664 7.77758C10.1194 7.77758 10.2466 7.72486 10.3405 7.63102L11.9719 6.00059C12.6301 5.34097 12.9998 4.44724 13 3.5154C13.0002 2.58357 12.6308 1.68969 11.9729 1.0298Z" fill="evenodd"/>
<path d="M7.92235 8.63474L6.29093 10.2662C5.81727 10.7272 5.18115 10.9831 4.52019 10.9787C3.85924 10.9743 3.22661 10.7098 2.75917 10.2425C2.29173 9.77519 2.02707 9.14263 2.02246 8.48168C2.01784 7.82073 2.27364 7.18453 2.73451 6.71074L4.36593 5.07782C4.45971 4.98397 4.51237 4.85672 4.51232 4.72405C4.51227 4.59138 4.45953 4.46416 4.36568 4.37039C4.27184 4.27661 4.14458 4.22395 4.01191 4.224C3.87924 4.22404 3.75203 4.27679 3.65825 4.37064L2.02732 6.00356C1.36829 6.66293 0.998179 7.55709 0.998413 8.48934C0.998648 9.42159 1.36921 10.3156 2.02857 10.9746C2.68794 11.6336 3.5821 12.0037 4.51435 12.0035C5.4466 12.0033 6.34058 11.6327 6.99961 10.9733L8.63104 9.34192C8.72214 9.2476 8.77255 9.12126 8.77141 8.99013C8.77027 8.859 8.71767 8.73356 8.62494 8.64083C8.53222 8.5481 8.40678 8.49551 8.27564 8.49437C8.14451 8.49323 8.01818 8.54364 7.92385 8.63474H7.92235Z" fill="evenodd"/>
<path d="M5.14563 7.14734L8.14641 4.14656C8.24074 4.05546 8.36707 4.00505 8.4982 4.00619C8.62933 4.00732 8.75477 4.05992 8.8475 4.15265C8.94023 4.24538 8.99283 4.37082 8.99397 4.50195C8.99511 4.63308 8.9447 4.75942 8.85359 4.85374L5.85282 7.85452C5.80668 7.90229 5.75149 7.94039 5.69048 7.9666C5.62946 7.99281 5.56383 8.00661 5.49742 8.00718C5.43102 8.00776 5.36516 7.99511 5.3037 7.96996C5.24223 7.94481 5.18639 7.90768 5.13943 7.86072C5.09248 7.81376 5.05534 7.75792 5.03019 7.69646C5.00504 7.63499 4.99239 7.56913 4.99297 7.50273C4.99355 7.43632 5.00734 7.37069 5.03355 7.30968C5.05976 7.24866 5.09787 7.19347 5.14563 7.14734Z" fill="evenodd"/>
</svg>
