<svg viewBox="0 0 13 12" fill="none" xmlns="http://www.w3.org/2000/svg">
<path d="M11.5005 8C11.4231 7.99999 11.3468 7.98202 11.2775 7.9475L10.2775 7.4475C10.1588 7.38822 10.0685 7.28423 10.0265 7.15839C9.98451 7.03256 9.99421 6.89518 10.0535 6.7765C10.1128 6.65782 10.2168 6.56754 10.3426 6.52553C10.4684 6.48352 10.6058 6.49322 10.7245 6.5525L11.7245 7.0525C11.8254 7.1028 11.9064 7.18575 11.9542 7.28787C12.0021 7.38999 12.014 7.50529 11.988 7.61504C11.9621 7.72478 11.8998 7.82254 11.8113 7.89242C11.7228 7.96231 11.6133 8.00022 11.5005 8ZM10.724 3.45L11.724 2.95C11.8427 2.89072 11.9329 2.78673 11.975 2.66089C12.017 2.53506 12.0073 2.39768 11.948 2.279C11.8887 2.16032 11.7847 2.07004 11.6589 2.02803C11.533 1.98602 11.3957 1.99572 11.277 2.055L10.277 2.555C10.1583 2.61428 10.068 2.71827 10.026 2.84411C9.98401 2.96994 9.99371 3.10732 10.053 3.226C10.1123 3.34468 10.2163 3.43496 10.3421 3.47697C10.4679 3.51898 10.6053 3.50928 10.724 3.45ZM12.0005 5C12.0005 4.86739 11.9478 4.74021 11.854 4.64645C11.7603 4.55268 11.6331 4.5 11.5005 4.5H10.5005C10.3679 4.5 10.2407 4.55268 10.1469 4.64645C10.0532 4.74021 10.0005 4.86739 10.0005 5C10.0005 5.13261 10.0532 5.25979 10.1469 5.35355C10.2407 5.44732 10.3679 5.5 10.5005 5.5H11.5005C11.6331 5.5 11.7603 5.44732 11.854 5.35355C11.9478 5.25979 12.0005 5.13261 12.0005 5ZM9.00049 9.5V0.5C9.00049 0.367392 8.94781 0.240215 8.85404 0.146447C8.76027 0.0526784 8.6331 0 8.50049 0C8.36788 0 8.2407 0.0526784 8.14693 0.146447C8.05317 0.240215 8.00049 0.367392 8.00049 0.5C8.00049 1.9745 6.70899 2.5 5.50049 2.5H2.00049C1.47006 2.5 0.961347 2.71071 0.586275 3.08579C0.211202 3.46086 0.000488281 3.96957 0.000488281 4.5L0.000488281 5.5C0.000488281 6.03043 0.211202 6.53914 0.586275 6.91421C0.961347 7.28929 1.47006 7.5 2.00049 7.5H5.50049C6.70899 7.5 8.00049 8.0255 8.00049 9.5C8.00049 9.63261 8.05317 9.75979 8.14693 9.85355C8.2407 9.94732 8.36788 10 8.50049 10C8.6331 10 8.76027 9.94732 8.85404 9.85355C8.94781 9.75979 9.00049 9.63261 9.00049 9.5ZM4.09349 8.5H2.00049C1.7677 8.49907 1.5358 8.47105 1.30949 8.4165L2.55949 11.2075C2.66447 11.4434 2.83558 11.6438 3.05211 11.7845C3.26863 11.9251 3.52129 12 3.77949 12C3.98491 11.9997 4.18701 11.948 4.36735 11.8497C4.54768 11.7513 4.70054 11.6094 4.81198 11.4368C4.92341 11.2642 4.98989 11.0665 5.00535 10.8616C5.02081 10.6568 4.98476 10.4513 4.90049 10.264L4.09349 8.5Z" fill="evenodd"/>
</svg>
