<svg viewBox="0 0 12 10" fill="none" xmlns="http://www.w3.org/2000/svg">
<path d="M5.01653 9.59114C5.62462 9.85421 6.29529 10 7 10C9.76142 10 12 7.76142 12 5C12 2.23858 9.76142 0 7 0C6.29529 0 5.62462 0.145791 5.01653 0.408857L8.2551 3.49022C8.70697 3.8319 9 4.38093 9 5C9 5.61907 8.70697 6.1681 8.2551 6.50978L5.01653 9.59114Z" fill="evenodd"/>
<path d="M0.75 4.24976H4.83495L3.53855 3.06016C3.23521 2.77811 3.21795 2.30355 3.5 2.0002C3.78205 1.69685 4.25661 1.67959 4.55996 1.96165L7.19527 4.39618C7.38012 4.53278 7.5 4.75227 7.5 4.99976C7.5 5.24725 7.38012 5.46674 7.19527 5.60334L4.59851 8.03871C4.29517 8.32077 3.82061 8.3035 3.53855 8.00016C3.2565 7.69681 3.27376 7.22225 3.57711 6.9402L4.83494 5.74976H0.75C0.335787 5.74976 0 5.41397 0 4.99976C0 4.58555 0.335787 4.24976 0.75 4.24976Z" fill="evenodd"/>
</svg>
