<svg viewBox="0 0 12 12" fill="none" xmlns="http://www.w3.org/2000/svg">
<path d="M11.1871 0.100284C11.3469 0.166491 11.492 0.263529 11.6141 0.38585C11.7365 0.508044 11.8335 0.653148 11.8997 0.812868C11.9659 0.972588 12 1.14379 12 1.31669C12 1.48959 11.9659 1.66079 11.8997 1.82051C11.8335 1.98023 11.7365 2.12533 11.6141 2.24753L9.85434 4.00684L7.99316 2.14566L9.75247 0.38585C9.87467 0.263529 10.0198 0.166491 10.1795 0.100284C10.3392 0.0340776 10.5104 0 10.6833 0C10.8562 0 11.0274 0.0340776 11.1871 0.100284Z" fill="evenodd"/>
<path d="M0 10.9698C0.000113656 10.4375 0.21166 9.92706 0.588109 9.55073L7.28362 2.85521L9.1448 4.71639L2.44929 11.4119C2.07295 11.7884 1.56249 11.9999 1.03019 12H0V10.9698Z" fill="evenodd"/>
</svg>
