<svg viewBox="0 0 12 10" fill="none" xmlns="http://www.w3.org/2000/svg">
<path d="M5.35164 2.98136L3.77494 0.25001C3.73105 0.173997 3.66792 0.110875 3.5919 0.0669896C3.51589 0.0231039 3.42966 0 3.34188 0C3.25411 0 3.16788 0.0231039 3.09186 0.0669896C3.01585 0.110875 2.95272 0.173997 2.90883 0.25001L0.0659586 5.17415C0.0220904 5.25013 -0.00101501 5.33632 -0.00103758 5.42405C-0.00106006 5.51179 0.0220011 5.59799 0.0658303 5.67399C0.109659 5.75 0.172714 5.81313 0.248662 5.85706C0.32461 5.90099 0.410778 5.92416 0.498515 5.92425H2.13023C2.32524 5.17481 2.73332 4.49798 3.30506 3.97567C3.87679 3.45337 4.58768 3.108 5.35164 2.98136Z" fill="evenodd"/>
<path d="M11.4999 0.42385H6.99935C6.86673 0.42385 6.73953 0.476535 6.64575 0.570316C6.55197 0.664096 6.49929 0.791289 6.49929 0.923915V2.95868C7.29275 3.06024 8.03765 3.39699 8.63807 3.92557C9.23848 4.45415 9.66692 5.15037 9.86822 5.92456H11.4999C11.6326 5.92456 11.7598 5.87188 11.8535 5.7781C11.9473 5.68432 12 5.55712 12 5.4245V0.923915C12 0.791289 11.9473 0.664096 11.8535 0.570316C11.7598 0.476535 11.6326 0.42385 11.4999 0.42385Z" fill="evenodd"/>
<path d="M8.99962 7.00039C8.99962 8.65746 7.6563 10.0008 5.99923 10.0008C4.34216 10.0008 2.99884 8.65746 2.99884 7.00039C2.99884 5.34332 4.34216 4 5.99923 4C7.6563 4 8.99962 5.34332 8.99962 7.00039Z" fill="evenodd"/>
</svg>
