<svg viewBox="0 0 12 12" fill="none" xmlns="http://www.w3.org/2000/svg">
<path fill-rule="evenodd" clip-rule="evenodd" d="M6.75 0.750001C6.75 0.335787 6.41421 7.37571e-07 6 0C5.58578 -6.32194e-08 5.25 0.335786 5.25 0.749999L5.24999 5.25L0.75 5.25001C0.335786 5.25001 0 5.58579 0 6.00001C0 6.41422 0.335786 6.75001 0.75 6.75001L5.24999 6.75L5.24999 11.25C5.24999 11.6642 5.58577 12 5.99999 12C6.4142 12 6.74999 11.6642 6.74999 11.25L6.74999 6.75H11.25C11.6642 6.75 12 6.41421 12 6C12 5.58579 11.6642 5.25 11.25 5.25H6.74999L6.75 0.750001Z" fill="evenodd"/>
</svg>
