<svg viewBox="0 0 12 12" fill="none" xmlns="http://www.w3.org/2000/svg">
<path fill-rule="evenodd" clip-rule="evenodd" d="M0 5C0 2.64298 0 1.46447 0.732233 0.732233C1.46447 0 2.64298 0 5 0H7C9.35702 0 10.5355 0 11.2678 0.732233C12 1.46447 12 2.64298 12 5V7C12 9.35702 12 10.5355 11.2678 11.2678C10.5355 12 9.35702 12 7 12H5C2.64298 12 1.46447 12 0.732233 11.2678C0 10.5355 0 9.35702 0 7V5ZM6 2.5C5.65482 2.5 5.375 2.77982 5.375 3.125V5.375H3.125C2.77982 5.375 2.5 5.65482 2.5 6C2.5 6.34518 2.77982 6.625 3.125 6.625H5.375V8.875C5.375 9.22018 5.65482 9.5 6 9.5C6.34518 9.5 6.625 9.22018 6.625 8.875V6.625H8.875C9.22018 6.625 9.5 6.34518 9.5 6C9.5 5.65482 9.22018 5.375 8.875 5.375H6.625V3.125C6.625 2.77982 6.34518 2.5 6 2.5Z" fill="evenodd"/>
</svg>
