<svg viewBox="0 0 12 12" fill="none" xmlns="http://www.w3.org/2000/svg">
<path d="M1.75 2.5C1.75 2.08579 2.08579 1.75 2.5 1.75H3.5C3.63807 1.75 3.75 1.86193 3.75 2V3.5C3.75 3.63807 3.63807 3.75 3.5 3.75H2C1.86193 3.75 1.75 3.63807 1.75 3.5V2.5Z" fill="evenodd"/>
<path fill-rule="evenodd" clip-rule="evenodd" d="M2.5 0C1.11929 0 0 1.11929 0 2.5V4.25C0 4.94036 0.559644 5.5 1.25 5.5H4.25C4.94036 5.5 5.5 4.94036 5.5 4.25V1.25C5.5 0.559644 4.94036 0 4.25 0H2.5ZM1 2.5C1 1.67157 1.67157 1 2.5 1H4C4.27614 1 4.5 1.22386 4.5 1.5V4C4.5 4.27614 4.27614 4.5 4 4.5H1.5C1.22386 4.5 1 4.27614 1 4V2.5Z" fill="evenodd"/>
<path d="M1.75 8.5C1.75 8.36193 1.86193 8.25 2 8.25H3.5C3.63807 8.25 3.75 8.36193 3.75 8.5V10C3.75 10.1381 3.63807 10.25 3.5 10.25H2.75C2.19772 10.25 1.75 9.80228 1.75 9.25V8.5Z" fill="evenodd"/>
<path fill-rule="evenodd" clip-rule="evenodd" d="M1.25 6.5C0.559644 6.5 0 7.05964 0 7.75V9.5C0 10.8807 1.11929 12 2.5 12H4.25C4.94036 12 5.5 11.4404 5.5 10.75V7.75C5.5 7.05964 4.94036 6.5 4.25 6.5H1.25ZM1 8C1 7.72386 1.22386 7.5 1.5 7.5H4C4.27614 7.5 4.5 7.72386 4.5 8V10.5C4.5 10.7761 4.27614 11 4 11H2.5C1.67157 11 1 10.3284 1 9.5V8Z" fill="evenodd"/>
<path d="M8.25 2C8.25 1.86193 8.36193 1.75 8.5 1.75H9.25C9.80228 1.75 10.25 2.19772 10.25 2.75V3.5C10.25 3.63807 10.1381 3.75 10 3.75H8.5C8.36193 3.75 8.25 3.63807 8.25 3.5V2Z" fill="evenodd"/>
<path fill-rule="evenodd" clip-rule="evenodd" d="M7.75 0C7.05964 0 6.5 0.559644 6.5 1.25V4.25C6.5 4.94036 7.05964 5.5 7.75 5.5H10.75C11.4404 5.5 12 4.94036 12 4.25V2.5C12 1.11929 10.8807 0 9.5 0H7.75ZM7.5 1.5C7.5 1.22386 7.72386 1 8 1H9.5C10.3284 1 11 1.67157 11 2.5V4C11 4.27614 10.7761 4.5 10.5 4.5H8C7.72386 4.5 7.5 4.27614 7.5 4V1.5Z" fill="evenodd"/>
<path d="M6.5 7C6.5 6.72386 6.72386 6.5 7 6.5H7.5C7.77614 6.5 8 6.72386 8 7V7.5C8 7.77614 7.77614 8 7.5 8H7C6.72386 8 6.5 7.77614 6.5 7.5V7Z" fill="evenodd"/>
<path d="M6.5 11C6.5 10.7239 6.72386 10.5 7 10.5H7.5C7.77614 10.5 8 10.7239 8 11V11.5C8 11.7761 7.77614 12 7.5 12H7C6.72386 12 6.5 11.7761 6.5 11.5V11Z" fill="evenodd"/>
<path d="M10.5 7C10.5 6.72386 10.7239 6.5 11 6.5H11.5C11.7761 6.5 12 6.72386 12 7V7.5C12 7.77614 11.7761 8 11.5 8H11C10.7239 8 10.5 7.77614 10.5 7.5V7Z" fill="evenodd"/>
<path d="M10.5 11C10.5 10.7239 10.7239 10.5 11 10.5H11.5C11.7761 10.5 12 10.7239 12 11V11.5C12 11.7761 11.7761 12 11.5 12H11C10.7239 12 10.5 11.7761 10.5 11.5V11Z" fill="evenodd"/>
<path d="M8.5 9C8.5 8.72386 8.72386 8.5 9 8.5H9.5C9.77614 8.5 10 8.72386 10 9V9.5C10 9.77614 9.77614 10 9.5 10H9C8.72386 10 8.5 9.77614 8.5 9.5V9Z" fill="evenodd"/>
</svg>
