<svg viewBox="0 0 8 12" fill="none" xmlns="http://www.w3.org/2000/svg">
<path fill-rule="evenodd" clip-rule="evenodd" d="M3.39575 8.99575C2.45957 8.99575 1.69362 9.56596 1.69362 10.4936C1.69362 11.4298 2.45957 12 3.39575 12C4.31489 12 5.08085 11.4298 5.08085 10.4936C5.08085 9.56596 4.31489 8.99575 3.39575 8.99575ZM3.86383 0C2.40851 0 1.32766 0.391489 0.680851 0.953192C0.26383 1.31064 0 1.77872 0 2.27234C0 2.84255 0.382979 3.38723 1.14043 3.38723C1.55745 3.38723 1.81277 3.21702 2.14468 2.97021C2.52766 2.64681 2.97872 2.46809 3.48936 2.46809C4.17021 2.46809 4.85958 2.80851 4.85958 3.51489C4.85958 4.17872 4.26383 4.53617 3.59149 5.02128C2.65532 5.71064 2.13617 6.31489 2.13617 7.13192C2.13617 7.81277 2.55319 8.35745 3.4383 8.35745C4.24681 8.35745 4.46809 7.89787 4.85106 7.38724C5.19149 6.89362 5.57447 6.58724 6.13617 6.22128C7.09787 5.60851 8 5.12553 8 3.5C8 1.11247 6.36596 0 3.86383 0Z" fill="evenodd"/>
</svg>
