<svg viewBox="0 0 14 14" fill="none" xmlns="http://www.w3.org/2000/svg">
<path d="M11.3105 1.14824C11.4043 1.0545 11.5314 1.00184 11.664 1.00184C11.7965 1.00184 11.9237 1.0545 12.0174 1.14824C12.1111 1.24197 12.1638 1.36911 12.1638 1.50167V3.50101C12.1638 3.76614 12.0585 4.02041 11.871 4.20788C11.6835 4.39536 11.4293 4.50068 11.1641 4.50068H9.16479C9.03222 4.50068 8.90509 4.44802 8.81135 4.35428C8.71761 4.26054 8.66495 4.13341 8.66495 4.00084C8.66495 3.86828 8.71761 3.74114 8.81135 3.64741C8.90509 3.55367 9.03222 3.50101 9.16479 3.50101H10.5368C9.8689 2.81808 9.01902 2.34116 8.08809 2.12687C7.15717 1.91259 6.18431 1.96995 5.28501 2.29213C4.38572 2.61432 3.59777 3.1878 3.01471 3.94448C2.43164 4.70117 2.07797 5.60928 1.99567 6.56099C1.98274 6.68248 1.92496 6.79478 1.83364 6.87594C1.74231 6.9571 1.624 7.00128 1.50183 6.99985C1.43193 6.99966 1.36283 6.98491 1.29894 6.95655C1.23505 6.92818 1.17777 6.88682 1.13074 6.83509C1.08372 6.78337 1.04799 6.72242 1.02582 6.65612C1.00366 6.58982 0.995543 6.51964 1.002 6.45003C1.10365 5.32029 1.52417 4.24268 2.21459 3.34269C2.90501 2.44271 3.83691 1.7574 4.90176 1.36657C5.96661 0.975745 7.12058 0.895488 8.22928 1.13515C9.33798 1.37481 10.3558 1.92452 11.1641 2.72027V1.50167C11.1641 1.36911 11.2168 1.24197 11.3105 1.14824Z" fill="evenodd"/>
<path d="M12.1664 7.1239C12.2577 7.04274 12.376 6.99856 12.4982 6.99999C12.5681 7.00018 12.6372 7.01493 12.7011 7.04329C12.765 7.07166 12.8222 7.11302 12.8693 7.16475C12.9163 7.21647 12.952 7.27742 12.9742 7.34372C12.9964 7.41002 13.0045 7.48021 12.998 7.54981C12.8964 8.67955 12.4758 9.75717 11.7854 10.6571C11.095 11.5571 10.1631 12.2424 9.09825 12.6333C8.0334 13.0241 6.87943 13.1044 5.77073 12.8647C4.66204 12.625 3.64424 12.0753 2.83589 11.2796V12.4982C2.83589 12.6307 2.78323 12.7579 2.68949 12.8516C2.59575 12.9453 2.46862 12.998 2.33605 12.998C2.20349 12.998 2.07635 12.9453 1.98262 12.8516C1.88888 12.7579 1.83622 12.6307 1.83622 12.4982V10.4988C1.83622 10.2337 1.94154 9.97943 2.12902 9.79196C2.31649 9.60449 2.57076 9.49916 2.83589 9.49916H4.83522C4.96779 9.49916 5.09492 9.55182 5.18866 9.64556C5.2824 9.7393 5.33506 9.86643 5.33506 9.999C5.33506 10.1316 5.2824 10.2587 5.18866 10.3524C5.09492 10.4462 4.96779 10.4988 4.83522 10.4988H3.46318C4.13111 11.1818 4.98099 11.6587 5.91192 11.873C6.84284 12.0872 7.8157 12.0299 8.715 11.7077C9.61429 11.3855 10.4022 10.812 10.9853 10.0554C11.5684 9.29867 11.922 8.39056 12.0043 7.43885C12.0173 7.31736 12.075 7.20506 12.1664 7.1239Z" fill="evenodd"/>
<path fill-rule="evenodd" clip-rule="evenodd" d="M4.85869 1.24923C5.94577 0.850238 7.12384 0.768306 8.25569 1.01297C9.29234 1.23706 10.2511 1.72667 11.0391 2.43158V1.50167C11.0391 1.33596 11.105 1.17703 11.2221 1.05985C11.3393 0.94267 11.4982 0.876839 11.664 0.876839C11.8297 0.876839 11.9886 0.94267 12.1058 1.05985C12.223 1.17703 12.2888 1.33596 12.2888 1.50167V3.50101C12.2888 3.79929 12.1703 4.08535 11.9594 4.29627C11.7485 4.50719 11.4624 4.62568 11.1641 4.62568H9.16479C8.99907 4.62568 8.84014 4.55985 8.72296 4.44267C8.60578 4.32549 8.53995 4.16656 8.53995 4.00084C8.53995 3.83513 8.60578 3.6762 8.72296 3.55902C8.84014 3.44184 8.99907 3.37601 9.16479 3.37601H10.2262C9.61298 2.82336 8.86781 2.43462 8.06005 2.24869C7.15245 2.03977 6.20395 2.09569 5.32717 2.40981C4.4504 2.72392 3.68218 3.28304 3.11372 4.02078C2.54526 4.75851 2.20044 5.64388 2.1202 6.57176L2.11999 6.57423C2.10377 6.72665 2.03125 6.86755 1.91667 6.96938C1.80209 7.0712 1.65365 7.12664 1.50037 7.12484L1.50183 6.99985L1.5015 7.12485C1.41423 7.12461 1.32797 7.1062 1.24822 7.07079C1.16846 7.03538 1.09695 6.98375 1.03825 6.91918C0.979551 6.85461 0.934944 6.77852 0.907273 6.69576C0.87962 6.61305 0.869487 6.52549 0.877517 6.43866C0.981318 5.28539 1.41061 4.18534 2.11541 3.26661C2.82025 2.34783 3.77161 1.64821 4.85869 1.24923ZM8.20287 1.25733C7.11732 1.02267 5.98744 1.10125 4.94483 1.48392C3.90222 1.86658 2.98977 2.53759 2.31377 3.41878C1.63777 4.29997 1.22602 5.35508 1.1265 6.46123C1.12164 6.51355 1.12771 6.56665 1.14437 6.61648C1.16103 6.66632 1.18789 6.71213 1.22324 6.75101C1.25858 6.78989 1.30164 6.82098 1.34966 6.8423C1.39769 6.86362 1.44962 6.87471 1.50217 6.87485L1.5033 6.87486C1.59435 6.87592 1.68253 6.84299 1.7506 6.78251C1.81839 6.72227 1.86137 6.63901 1.87125 6.54889C1.95582 5.57383 2.3183 4.64347 2.91569 3.86819C3.51335 3.09255 4.32104 2.50471 5.24286 2.17446C6.16467 1.8442 7.1619 1.78541 8.11613 2.00506C9.07037 2.22471 9.94153 2.71357 10.6262 3.41361L10.8339 3.62601H9.16479C9.06538 3.62601 8.97004 3.6655 8.89974 3.7358C8.82945 3.80609 8.78995 3.90143 8.78995 4.00084C8.78995 4.10026 8.82945 4.1956 8.89974 4.26589C8.97004 4.33619 9.06538 4.37568 9.16479 4.37568H11.1641C11.3961 4.37568 11.6186 4.28352 11.7826 4.11949C11.9466 3.95546 12.0388 3.73299 12.0388 3.50101V1.50167C12.0388 1.40226 11.9993 1.30692 11.929 1.23663C11.8587 1.16633 11.7634 1.12684 11.664 1.12684C11.5645 1.12684 11.4692 1.16633 11.3989 1.23663C11.3286 1.30692 11.2891 1.40226 11.2891 1.50167V3.01872L11.0764 2.80935C10.285 2.03022 9.28841 1.49198 8.20287 1.25733ZM12.0833 7.03046C12.1979 6.92864 12.3464 6.87321 12.4996 6.875L12.4982 6.99999L12.4985 6.87499C12.4989 6.875 12.4993 6.875 12.4996 6.875C12.5865 6.87539 12.6724 6.89379 12.7518 6.92905C12.8316 6.96446 12.9031 7.01609 12.9618 7.08066C13.0205 7.14523 13.0651 7.22132 13.0927 7.30408C13.1204 7.38679 13.1305 7.47435 13.1225 7.56119C13.0187 8.71445 12.5894 9.8145 11.8846 10.7332C11.1798 11.652 10.2284 12.3516 9.14132 12.7506C8.05424 13.1496 6.87617 13.2315 5.74432 12.9869C4.70767 12.7628 3.74887 12.2732 2.96089 11.5683V11.2796H2.83589L2.7482 11.3687C2.81761 11.437 2.88853 11.5035 2.96089 11.5683V12.4982C2.96089 12.6639 2.89506 12.8228 2.77788 12.94C2.6607 13.0572 2.50177 13.123 2.33605 13.123C2.17034 13.123 2.01141 13.0572 1.89423 12.94C1.77705 12.8228 1.71122 12.6639 1.71122 12.4982V10.4988C1.71122 10.2006 1.82971 9.91449 2.04063 9.70357C2.25154 9.49266 2.53761 9.37416 2.83589 9.37416H4.83522C5.00094 9.37416 5.15987 9.43999 5.27705 9.55717C5.39423 9.67435 5.46006 9.83328 5.46006 9.999C5.46006 10.1647 5.39423 10.3236 5.27705 10.4408C5.15987 10.558 5.00094 10.6238 4.83522 10.6238H3.7738C3.69799 10.5555 3.62419 10.4847 3.55254 10.4114L3.46318 10.4988V10.6238H3.7738C4.38704 11.1765 5.13221 11.5652 5.93996 11.7512C6.84757 11.9601 7.79606 11.9041 8.67284 11.59C9.54961 11.2759 10.3178 10.7168 10.8863 9.97906C11.4547 9.24133 11.7996 8.35596 11.8798 7.42808L11.88 7.42562C11.8962 7.27319 11.9688 7.13229 12.0833 7.03046ZM12.4967 7.12499C12.4057 7.12392 12.3175 7.15685 12.2494 7.21734C12.1816 7.27757 12.1386 7.36083 12.1288 7.45094C12.0442 8.42601 11.6817 9.35637 11.0843 10.1317C10.4867 10.9073 9.67897 11.4951 8.75716 11.8254C7.83534 12.1556 6.83811 12.2144 5.88388 11.9948C4.92964 11.7751 4.05848 11.2863 3.37382 10.5862L3.16608 10.3738H4.83522C4.93464 10.3738 5.02998 10.3343 5.10027 10.264C5.17057 10.1938 5.21006 10.0984 5.21006 9.999C5.21006 9.89959 5.17057 9.80424 5.10027 9.73395C5.02998 9.66366 4.93464 9.62416 4.83522 9.62416H2.83589C2.60391 9.62416 2.38144 9.71632 2.2174 9.88035C2.05337 10.0444 1.96122 10.2669 1.96122 10.4988V12.4982C1.96122 12.5976 2.00071 12.6929 2.07101 12.7632C2.1413 12.8335 2.23664 12.873 2.33605 12.873C2.43547 12.873 2.53081 12.8335 2.6011 12.7632C2.6714 12.6929 2.71089 12.5976 2.71089 12.4982V10.9811L2.92358 11.1905C3.71505 11.9696 4.7116 12.5079 5.79714 12.7425C6.88269 12.9772 8.01257 12.8986 9.05518 12.5159C10.0978 12.1333 11.0102 11.4623 11.6862 10.5811C12.3622 9.69987 12.774 8.64476 12.8735 7.53861C12.8784 7.48629 12.8723 7.43319 12.8556 7.38336C12.839 7.33353 12.8121 7.28771 12.7768 7.24883C12.7414 7.20995 12.6984 7.17886 12.6504 7.15754C12.6023 7.13622 12.5504 7.12513 12.4978 7.12499L12.4967 7.12499Z" fill="evenodd"/>
</svg>
