<svg viewBox="0 0 13 10" fill="none" xmlns="http://www.w3.org/2000/svg">
<path d="M13 0.75C13 0.335786 12.6642 0 12.25 0C11.8358 0 11.5 0.335786 11.5 0.75V4.99976C11.5 4.75227 11.3801 4.53278 11.1953 4.39618L7.7607 1.2027C7.45736 0.920646 6.9828 0.937908 6.70074 1.24125C6.41869 1.5446 6.43595 2.01916 6.7393 2.30121L8.83495 4.24976H1.25C0.835787 4.24976 0.5 4.58554 0.5 4.99976C0.5 5.41397 0.835787 5.74976 1.25 5.74976H8.83494L6.7393 7.6983C6.43595 7.98036 6.41869 8.45492 6.70074 8.75826C6.98279 9.06161 7.45735 9.07887 7.7607 8.79682L11.1953 5.60334C11.3801 5.46674 11.5 5.24725 11.5 4.99976V9.25C11.5 9.66421 11.8358 10 12.25 10C12.6642 10 13 9.66421 13 9.25V0.75Z" fill="evenodd"/>
</svg>
