<svg viewBox="0 0 12 12" fill="none" xmlns="http://www.w3.org/2000/svg">
<path fill-rule="evenodd" clip-rule="evenodd" d="M7.96541 9.02612C7.13575 9.63822 6.11013 10 5 10C2.23858 10 0 7.76142 0 5C0 2.23858 2.23858 0 5 0C7.76142 0 10 2.23858 10 5C10 6.11015 9.6382 7.1358 9.02607 7.96547L11.7123 10.6517C12.0052 10.9446 12.0052 11.4195 11.7123 11.7124C11.4194 12.0053 10.9445 12.0053 10.6517 11.7124L7.96541 9.02612ZM8.5 5C8.5 6.933 6.933 8.5 5 8.5C3.067 8.5 1.5 6.933 1.5 5C1.5 3.067 3.067 1.5 5 1.5C6.933 1.5 8.5 3.067 8.5 5Z" fill="evenodd"/>
</svg>
