<svg viewBox="0 0 14 12" fill="none" xmlns="http://www.w3.org/2000/svg">
<path d="M2.5 0C1.11929 0 0 1.11929 0 2.5V9.5C0 10.8807 1.11929 12 2.5 12H5.5C6.88071 12 8 10.8807 8 9.5V8.25H5.75C4.50736 8.25 3.5 7.24264 3.5 6C3.5 4.75736 4.50736 3.75 5.75 3.75H8V2.5C8 1.11929 6.88071 0 5.5 0H2.5Z" fill="evenodd"/>
<path d="M5.75 5.2496H11.3349L10.0386 4.06C9.73521 3.77795 9.71795 3.30339 10 3.00004C10.2821 2.6967 10.7566 2.67944 11.06 2.96149L13.6953 5.39602C13.8801 5.53262 14 5.75211 14 5.9996C14 6.24709 13.8801 6.46658 13.6953 6.60318L11.0985 9.03856C10.7952 9.32061 10.3206 9.30335 10.0386 9C9.7565 8.69665 9.77376 8.22209 10.0771 7.94004L11.3349 6.7496H5.75C5.33579 6.7496 5 6.41382 5 5.9996C5 5.58539 5.33579 5.2496 5.75 5.2496Z" fill="evenodd"/>
</svg>
