<svg viewBox="0 0 10 12" fill="none" xmlns="http://www.w3.org/2000/svg">
<path fill-rule="evenodd" clip-rule="evenodd" d="M10 9.5C10 10.8807 8.88071 12 7.5 12H2.5C1.11929 12 0 10.8807 0 9.5V2.5C0 1.11929 1.11929 0 2.5 0H4.96447C5.62751 0 6.26339 0.263392 6.73223 0.732233L9.26777 3.26777C9.73661 3.73661 10 4.37249 10 5.03553V9.5ZM6.625 5.125C6.90114 5.125 7.125 5.34886 7.125 5.625V7.125C7.125 7.40114 6.90114 7.625 6.625 7.625H6.375C6.09886 7.625 5.875 7.40114 5.875 7.125V5.625C5.875 5.34886 6.09886 5.125 6.375 5.125H6.625ZM6.625 8.625C6.90114 8.625 7.125 8.84886 7.125 9.125V9.625C7.125 9.90114 6.90114 10.125 6.625 10.125H6.375C6.09886 10.125 5.875 9.90114 5.875 9.625V9.125C5.875 8.84886 6.09886 8.625 6.375 8.625H6.625ZM5.125 9.625C5.125 9.90114 4.90114 10.125 4.625 10.125H4.375C4.09886 10.125 3.875 9.90114 3.875 9.625V8.125C3.875 7.84886 4.09886 7.625 4.375 7.625H4.625C4.90114 7.625 5.125 7.84886 5.125 8.125V9.625ZM4.625 6.625C4.90114 6.625 5.125 6.40114 5.125 6.125V5.625C5.125 5.34886 4.90114 5.125 4.625 5.125H4.375C4.09886 5.125 3.875 5.34886 3.875 5.625V6.125C3.875 6.40114 4.09886 6.625 4.375 6.625H4.625ZM3.125 5.625C3.125 5.34886 2.90114 5.125 2.625 5.125H2.375C2.09886 5.125 1.875 5.34886 1.875 5.625V7.125C1.875 7.40114 2.09886 7.625 2.375 7.625H2.625C2.90114 7.625 3.125 7.40114 3.125 7.125V5.625ZM2.625 8.625C2.90114 8.625 3.125 8.84886 3.125 9.125V9.625C3.125 9.90114 2.90114 10.125 2.625 10.125H2.375C2.09886 10.125 1.875 9.90114 1.875 9.625V9.125C1.875 8.84886 2.09886 8.625 2.375 8.625H2.625Z" fill="evenodd"/>
</svg>
