<svg viewBox="0 0 12 12" fill="none" xmlns="http://www.w3.org/2000/svg">
<path d="M0 1.625C0 1.27982 0.279822 1 0.625 1H11.375C11.7202 1 12 1.27982 12 1.625C12 1.97018 11.7202 2.25 11.375 2.25H0.625C0.279822 2.25 0 1.97018 0 1.625Z" fill="evenodd"/>
<path d="M0 5.995C0 5.64982 0.279822 5.37 0.625 5.37H11.375C11.7202 5.37 12 5.64982 12 5.995C12 6.34018 11.7202 6.62 11.375 6.62H0.625C0.279822 6.62 0 6.34018 0 5.995Z" fill="evenodd"/>
<path d="M0 10.375C0 10.0298 0.279822 9.75 0.625 9.75H11.375C11.7202 9.75 12 10.0298 12 10.375C12 10.7202 11.7202 11 11.375 11H0.625C0.279822 11 0 10.7202 0 10.375Z" fill="evenodd"/>
<path d="M5 1.5C5 2.32843 4.32843 3 3.5 3C2.67157 3 2 2.32843 2 1.5C2 0.671573 2.67157 0 3.5 0C4.32843 0 5 0.671573 5 1.5Z" fill="evenodd"/>
<path d="M10 6C10 6.82843 9.32843 7.5 8.5 7.5C7.67157 7.5 7 6.82843 7 6C7 5.17157 7.67157 4.5 8.5 4.5C9.32843 4.5 10 5.17157 10 6Z" fill="evenodd"/>
<path d="M5 10.5C5 11.3284 4.32843 12 3.5 12C2.67157 12 2 11.3284 2 10.5C2 9.67157 2.67157 9 3.5 9C4.32843 9 5 9.67157 5 10.5Z" fill="evenodd"/>
</svg>
