<svg viewBox="0 0 10 10" fill="none" xmlns="http://www.w3.org/2000/svg">
<path d="M0 0.75C0 0.335786 0.335786 0 0.75 0H2.75C3.16421 0 3.5 0.335786 3.5 0.75C3.5 1.16421 3.16421 1.5 2.75 1.5H0.75C0.335786 1.5 0 1.16421 0 0.75Z" fill="evenodd"/>
<path d="M0 5C0 4.58579 0.335786 4.25 0.75 4.25H6.25C6.66421 4.25 7 4.58579 7 5C7 5.41421 6.66421 5.75 6.25 5.75H0.75C0.335786 5.75 0 5.41421 0 5Z" fill="evenodd"/>
<path d="M0.75 8.5C0.335786 8.5 0 8.83579 0 9.25C0 9.66421 0.335786 10 0.75 10H9.25C9.66421 10 10 9.66421 10 9.25C10 8.83579 9.66421 8.5 9.25 8.5H0.75Z" fill="evenodd"/>
</svg>
