<svg viewBox="0 0 10 10" fill="none" xmlns="http://www.w3.org/2000/svg">
<path d="M0 9.25C0 9.66421 0.335786 10 0.75 10H2.75C3.16421 10 3.5 9.66421 3.5 9.25C3.5 8.83579 3.16421 8.5 2.75 8.5H0.75C0.335786 8.5 0 8.83579 0 9.25Z" fill="evenodd"/>
<path d="M0 5C0 5.41421 0.335786 5.75 0.75 5.75H6.25C6.66421 5.75 7 5.41421 7 5C7 4.58579 6.66421 4.25 6.25 4.25H0.75C0.335786 4.25 0 4.58579 0 5Z" fill="evenodd"/>
<path d="M0.75 1.5C0.335786 1.5 0 1.16421 0 0.75C0 0.335787 0.335786 0 0.75 0H9.25C9.66421 0 10 0.335787 10 0.75C10 1.16421 9.66421 1.5 9.25 1.5H0.75Z" fill="evenodd"/>
</svg>
