<svg viewBox="0 0 12 10" fill="none" xmlns="http://www.w3.org/2000/svg">
<path fill-rule="evenodd" clip-rule="evenodd" d="M0 7.5V2.5C0 1.83696 0.263392 1.20107 0.732233 0.732233C1.20107 0.263392 1.83696 0 2.5 0H5.5V10H2.5C1.83696 10 1.20107 9.73661 0.732233 9.26777C0.263392 8.79893 0 8.16304 0 7.5Z" fill="evenodd"/>
<path fill-rule="evenodd" clip-rule="evenodd" d="M10.4567 9.8097C10.1534 9.93534 9.8283 10 9.5 10H6.5V0H9.5C9.8283 0 10.1534 0.0646639 10.4567 0.190301C10.76 0.315938 11.0356 0.500087 11.2678 0.732233C11.4999 0.964379 11.6841 1.23998 11.8097 1.54329C11.9353 1.84661 12 2.1717 12 2.5V7.5C12 8.16304 11.7366 8.79893 11.2678 9.26777C11.0356 9.49991 10.76 9.68406 10.4567 9.8097Z" fill="evenodd"/>
</svg>
