<svg viewBox="0 0 12 13" fill="none" xmlns="http://www.w3.org/2000/svg">
<path d="M5.35192 1.11269C5.64122 0.61599 6.35878 0.615991 6.64808 1.11269L8.09663 3.5997C8.20261 3.78165 8.38019 3.91067 8.58599 3.95523L11.3989 4.56436C11.9607 4.68601 12.1824 5.36845 11.7994 5.79709L9.88178 7.94326C9.74148 8.10028 9.67365 8.30904 9.69486 8.51853L9.98478 11.382C10.0427 11.9539 9.46216 12.3757 8.93616 12.1439L6.30244 10.9833C6.10975 10.8984 5.89025 10.8984 5.69756 10.9833L3.06384 12.1439C2.53783 12.3757 1.95731 11.9539 2.01522 11.382L2.30514 8.51853C2.32635 8.30904 2.25852 8.10028 2.11822 7.94326L0.200567 5.79709C-0.182424 5.36845 0.0393163 4.68601 0.601106 4.56436L3.41401 3.95523C3.61981 3.91067 3.79739 3.78165 3.90337 3.5997L5.35192 1.11269Z" fill="evenodd"/>
</svg>
