<svg viewBox="0 0 12 12" fill="none" xmlns="http://www.w3.org/2000/svg">
<path fill-rule="evenodd" clip-rule="evenodd" d="M0.75 2C0.335786 2 0 2.33579 0 2.75C0 3.16421 0.335786 3.5 0.75 3.5H1.5V9.5C1.5 10.8807 2.61929 12 4 12H8C9.38071 12 10.5 10.8807 10.5 9.5V3.5H11.25C11.6642 3.5 12 3.16421 12 2.75C12 2.33579 11.6642 2 11.25 2H0.75ZM4.75 5C4.47386 5 4.25 5.22386 4.25 5.5V8.5C4.25 8.77614 4.47386 9 4.75 9C5.02614 9 5.25 8.77614 5.25 8.5V5.5C5.25 5.22386 5.02614 5 4.75 5ZM7.25 5C6.97386 5 6.75 5.22386 6.75 5.5V8.5C6.75 8.77614 6.97386 9 7.25 9C7.52614 9 7.75 8.77614 7.75 8.5V5.5C7.75 5.22386 7.52614 5 7.25 5Z" fill="evenodd"/>
<path d="M3.30902 1.38197C3.7325 0.535006 4 6.28461e-10 5.54508 6.28835e-10H6.45492C8 0 8.2675 0.535006 8.69098 1.38197L9 2H3L3.30902 1.38197Z" fill="evenodd"/>
</svg>
