<svg viewBox="0 0 12 10" fill="none" xmlns="http://www.w3.org/2000/svg">
<path d="M2 1.5C2 2.05228 1.55228 2.5 1 2.5C0.447715 2.5 0 2.05228 0 1.5C0 0.947715 0.447715 0.5 1 0.5C1.55228 0.5 2 0.947715 2 1.5Z" fill="evenodd"/>
<path d="M11.5 2H3.5C3.36739 2 3.24021 1.94732 3.14645 1.85355C3.05268 1.75979 3 1.63261 3 1.5C3 1.36739 3.05268 1.24021 3.14645 1.14645C3.24021 1.05268 3.36739 1 3.5 1H11.5C11.6326 1 11.7598 1.05268 11.8536 1.14645C11.9473 1.24021 12 1.36739 12 1.5C12 1.63261 11.9473 1.75979 11.8536 1.85355C11.7598 1.94732 11.6326 2 11.5 2Z" fill="evenodd"/>
<path d="M3.5 4.5H11.5C11.6326 4.5 11.7598 4.55268 11.8536 4.64645C11.9473 4.74021 12 4.86739 12 5C12 5.13261 11.9473 5.25979 11.8536 5.35355C11.7598 5.44732 11.6326 5.5 11.5 5.5H3.5C3.36739 5.5 3.24021 5.44732 3.14645 5.35355C3.05268 5.25979 3 5.13261 3 5C3 4.86739 3.05268 4.74021 3.14645 4.64645C3.24021 4.55268 3.36739 4.5 3.5 4.5Z" fill="evenodd"/>
<path d="M11.5 8H3.5C3.36739 8 3.24021 8.05268 3.14645 8.14645C3.05268 8.24021 3 8.36739 3 8.5C3 8.63261 3.05268 8.75979 3.14645 8.85355C3.24021 8.94732 3.36739 9 3.5 9H11.5C11.6326 9 11.7598 8.94732 11.8536 8.85355C11.9473 8.75979 12 8.63261 12 8.5C12 8.36739 11.9473 8.24021 11.8536 8.14645C11.7598 8.05268 11.6326 8 11.5 8Z" fill="evenodd"/>
<path d="M1 6C1.55228 6 2 5.55228 2 5C2 4.44772 1.55228 4 1 4C0.447715 4 0 4.44772 0 5C0 5.55228 0.447715 6 1 6Z" fill="evenodd"/>
<path d="M2 8.5C2 9.05228 1.55228 9.5 1 9.5C0.447715 9.5 0 9.05228 0 8.5C0 7.94772 0.447715 7.5 1 7.5C1.55228 7.5 2 7.94772 2 8.5Z" fill="evenodd"/>
</svg>
