<svg viewBox="0 0 14 14" fill="none" xmlns="http://www.w3.org/2000/svg">
<path d="M2.57895 0H3.5614C3.72426 0 3.88044 0.0646929 3.99559 0.179847C4.11075 0.295001 4.17544 0.451183 4.17544 0.614035C4.17544 0.776888 4.11075 0.93307 3.99559 1.04822C3.88044 1.16338 3.72426 1.22807 3.5614 1.22807H2.57895C2.22067 1.22807 1.87707 1.37039 1.62373 1.62373C1.37039 1.87707 1.22807 2.22067 1.22807 2.57895V3.5614C1.22807 3.72426 1.16338 3.88044 1.04822 3.99559C0.93307 4.11075 0.776887 4.17544 0.614035 4.17544C0.451183 4.17544 0.295001 4.11075 0.179847 3.99559C0.0646928 3.88044 0 3.72426 0 3.5614V2.57895C0.000818954 1.89526 0.272776 1.23966 0.756218 0.756218C1.23966 0.272776 1.89526 0.000818954 2.57895 0Z" fill="evenodd"/>
<path d="M10.0044 0.179847C10.1196 0.0646928 10.2757 0 10.4386 0H11.4211C12.1047 0.00081913 12.7603 0.272776 13.2438 0.756218C13.7272 1.23966 13.9992 1.89511 14 2.5788V3.5614C14 3.72426 13.9353 3.88044 13.8202 3.99559C13.705 4.11075 13.5488 4.17544 13.386 4.17544C13.2231 4.17544 13.0669 4.11075 12.9518 3.99559C12.8366 3.88044 12.7719 3.72426 12.7719 3.5614V2.57895C12.7719 2.22067 12.6296 1.87707 12.3763 1.62373C12.1229 1.37039 11.7793 1.22807 11.4211 1.22807H10.4386C10.2757 1.22807 10.1196 1.16338 10.0044 1.04822C9.88925 0.93307 9.82456 0.776887 9.82456 0.614035C9.82456 0.451183 9.88925 0.295001 10.0044 0.179847Z" fill="evenodd"/>
<path d="M0.179847 10.0044C0.295001 9.88925 0.451183 9.82456 0.614035 9.82456C0.776887 9.82456 0.933069 9.88925 1.04822 10.0044C1.16338 10.1196 1.22807 10.2757 1.22807 10.4386V11.4211C1.22807 11.7793 1.37039 12.1229 1.62373 12.3763C1.87707 12.6296 2.22067 12.7719 2.57895 12.7719H3.5614C3.72426 12.7719 3.88044 12.8366 3.99559 12.9518C4.11075 13.0669 4.17544 13.2231 4.17544 13.386C4.17544 13.5488 4.11075 13.705 3.99559 13.8202C3.88044 13.9353 3.72426 14 3.5614 14H2.57895C1.89526 13.9992 1.23966 13.7272 0.756218 13.2438C0.272776 12.7603 0.000819042 12.1049 0 11.4212V10.4386C0 10.2757 0.0646927 10.1196 0.179847 10.0044Z" fill="evenodd"/>
<path d="M12.9518 10.0044C13.0669 9.88925 13.2231 9.82456 13.386 9.82456C13.5488 9.82456 13.705 9.88925 13.8202 10.0044C13.9353 10.1196 14 10.2757 14 10.4386V11.4211C13.9992 12.1047 13.7272 12.7603 13.2438 13.2438C12.7603 13.7272 12.1049 13.9992 11.4212 14H10.4386C10.2757 14 10.1196 13.9353 10.0044 13.8202C9.88925 13.705 9.82456 13.5488 9.82456 13.386C9.82456 13.2231 9.88925 13.0669 10.0044 12.9518C10.1196 12.8366 10.2757 12.7719 10.4386 12.7719H11.4211C11.7793 12.7719 12.1229 12.6296 12.3763 12.3763C12.6296 12.1229 12.7719 11.7793 12.7719 11.4211V10.4386C12.7719 10.2757 12.8366 10.1196 12.9518 10.0044Z" fill="evenodd"/>
<path d="M7 6.5C8.10457 6.5 9 5.60457 9 4.5C9 3.39543 8.10457 2.5 7 2.5C5.89543 2.5 5 3.39543 5 4.5C5 5.60457 5.89543 6.5 7 6.5Z" fill="evenodd"/>
<path d="M6.5 7.5C5.70459 7.50079 4.94199 7.81712 4.37956 8.37956C3.81712 8.94199 3.50079 9.70459 3.5 10.5C3.5 10.6326 3.55268 10.7598 3.64645 10.8536C3.74021 10.9473 3.86739 11 4 11H10C10.1326 11 10.2598 10.9473 10.3536 10.8536C10.4473 10.7598 10.5 10.6326 10.5 10.5C10.4992 9.70459 10.1829 8.94199 9.62044 8.37956C9.05801 7.81712 8.29541 7.50079 7.5 7.5H6.5Z" fill="evenodd"/>
</svg>
