<svg viewBox="0 0 10 12" fill="none" xmlns="http://www.w3.org/2000/svg">
<path d="M5 5.75126C6.65685 5.75126 8 4.65665 8 2.9998C8 1.34294 6.65685 0.253418 5 0.253418C3.34315 0.253418 2 1.34294 2 2.9998C2 4.65665 3.34315 5.75126 5 5.75126Z" fill="evenodd"/>
<path d="M8.22924 7.12648C7.96642 7.04258 7.67516 7.00007 7.36361 7.00007C7.24125 7.00007 7.12292 7.04058 6.8944 7.16064C6.75375 7.23465 6.58924 7.32025 6.40562 7.41492C6.24861 7.49565 6.0359 7.57128 5.77318 7.63976C5.51685 7.70669 5.2566 7.74063 4.99973 7.74063C4.74285 7.74063 4.48269 7.70669 4.22609 7.63976C3.96364 7.57135 3.75094 7.49572 3.59411 7.41499C3.41222 7.32121 3.24762 7.23561 3.10487 7.16057C2.87662 7.04051 2.7582 7 2.63584 7C2.32419 7 2.03303 7.04258 1.77031 7.12655C1.50676 7.21074 1.2786 7.32637 1.09214 7.47034C0.914095 7.60788 0.755254 7.77487 0.620279 7.96665C0.490151 8.15149 0.384805 8.3443 0.307259 8.53977C0.232365 8.72875 0.169724 8.93543 0.121075 9.15415C0.0728826 9.37094 0.0401448 9.57659 0.0239589 9.7655C0.00804724 9.95056 0 10.1426 0 10.3366C0 10.8415 0.198895 11.2502 0.591108 11.5517C0.978474 11.8491 1.49103 12 2.11433 12H7.88567C8.50897 12 9.02134 11.8492 9.4088 11.5517C9.8011 11.2504 10 10.8416 10 10.3366C10 10.1417 9.99177 9.94945 9.97577 9.76528C9.95958 9.57682 9.92684 9.37124 9.87865 9.15415C9.83 8.93543 9.76736 8.72867 9.69237 8.5397C9.61492 8.34438 9.50957 8.15149 9.37935 7.96665C9.2442 7.77479 9.08545 7.60773 8.90731 7.47026C8.72103 7.32645 8.49297 7.21082 8.22924 7.12648Z" fill="evenodd"/>
</svg>
