<svg viewBox="0 0 6 12" fill="none" xmlns="http://www.w3.org/2000/svg">
<path d="M2.99497 0C3.02678 0 3.05805 0.00237737 3.08858 0.00696416C3.2203 0.00399109 3.35297 0.0527639 3.45349 0.153283L5.44753 2.14732C5.64279 2.34259 5.64279 2.65917 5.44753 2.85443C5.25227 3.04969 4.93569 3.04969 4.74043 2.85443L3.61997 1.73397L3.61997 10.2729L4.74043 9.15241C4.93569 8.95714 5.25227 8.95714 5.44753 9.15241C5.64279 9.34767 5.64279 9.66425 5.44753 9.85951L3.45349 11.8536C3.34327 11.9638 3.1944 12.0118 3.05051 11.9976C3.03221 11.9992 3.01368 12 2.99497 12C2.98163 12 2.96839 11.9996 2.95526 11.9988C2.8158 12.0086 2.67301 11.9602 2.56639 11.8536L0.57235 9.85951C0.377088 9.66425 0.377088 9.34767 0.57235 9.15241C0.767612 8.95714 1.08419 8.95714 1.27946 9.15241L2.36997 10.2429L2.36997 1.76392L1.27946 2.85443C1.08419 3.04969 0.767612 3.04969 0.57235 2.85443C0.377088 2.65917 0.377088 2.34259 0.57235 2.14732L2.56639 0.153283C2.65881 0.0608665 2.7784 0.0121902 2.89944 0.00725387C2.93059 0.00247751 2.96249 0 2.99497 0Z" fill="evenodd"/>
</svg>
